<svg width="24" height="25" viewBox="0 0 24 25" fill="none" xmlns="http://www.w3.org/2000/svg">
<path d="M13.6899 12.5L22.1473 4.04261C22.6176 3.57231 22.6176 2.81505 22.1473 2.35272C21.677 1.88243 20.9197 1.88243 20.4574 2.35272L12 10.8101L3.54261 2.35272C3.07231 1.88243 2.32302 1.88243 1.85272 2.35272C1.38243 2.82302 1.38243 3.57231 1.85272 4.04261L10.3101 12.5L1.85272 20.9494C1.38243 21.4197 1.38243 22.177 1.85272 22.6393C2.32302 23.1096 3.08028 23.1096 3.54261 22.6393L12 14.1899L20.4574 22.6473C20.9277 23.1176 21.6849 23.1176 22.1473 22.6473C22.6176 22.177 22.6176 21.4197 22.1473 20.9574L13.6899 12.5Z" fill="#EB3D47"/>
</svg>
