<svg width="36" height="37" viewBox="0 0 36 37" fill="none" xmlns="http://www.w3.org/2000/svg">
<path d="M26.9997 23.75C26.8023 23.7511 26.6066 23.7133 26.4238 23.6386C26.2411 23.564 26.0748 23.454 25.9347 23.315L19.0647 16.43C18.9252 16.2894 18.7593 16.1778 18.5765 16.1016C18.3937 16.0255 18.1977 15.9863 17.9997 15.9863C17.8017 15.9863 17.6056 16.0255 17.4228 16.1016C17.24 16.1778 17.0741 16.2894 16.9347 16.43L10.0647 23.315C9.78221 23.5974 9.39912 23.7561 8.99967 23.7561C8.60022 23.7561 8.21712 23.5974 7.93467 23.315C7.65221 23.0325 7.49353 22.6494 7.49353 22.25C7.49353 22.0522 7.53249 21.8563 7.60818 21.6736C7.68387 21.4908 7.79481 21.3248 7.93467 21.185L14.8197 14.315C15.6746 13.4936 16.8141 13.0349 17.9997 13.0349C19.1852 13.0349 20.3248 13.4936 21.1797 14.315L28.0647 21.185C28.2053 21.3244 28.3169 21.4903 28.393 21.6731C28.4692 21.8559 28.5084 22.0519 28.5084 22.25C28.5084 22.448 28.4692 22.644 28.393 22.8268C28.3169 23.0096 28.2053 23.1755 28.0647 23.315C27.9245 23.454 27.7583 23.564 27.5755 23.6386C27.3928 23.7133 27.1971 23.7511 26.9997 23.75Z" fill="url(#paint0_linear_131_1953)"/>
<defs>
<linearGradient id="paint0_linear_131_1953" x1="7.49353" y1="18.3955" x2="28.5084" y2="18.3955" gradientUnits="userSpaceOnUse">
<stop stop-color="#1D5480"/>
<stop offset="1" stop-color="#3D9EEB"/>
</linearGradient>
</defs>
</svg>
