<svg width="32" height="32" viewBox="0 0 32 32" fill="none" xmlns="http://www.w3.org/2000/svg">
<rect width="32" height="32" rx="16" fill="url(#paint0_linear_162_1933)"/>
<g clip-path="url(#clip0_162_1933)">
<path d="M14.2318 21.1017C14.464 21.334 14.7396 21.5183 15.0431 21.644C15.3465 21.7698 15.6717 21.8345 16.0001 21.8345C16.3286 21.8345 16.6538 21.7698 16.9572 21.644C17.2606 21.5183 17.5363 21.334 17.7685 21.1017L20.4443 18.4258C20.5878 18.2672 20.6647 18.0594 20.6592 17.8455C20.6538 17.6317 20.5662 17.4282 20.4148 17.2771C20.2634 17.126 20.0597 17.0389 19.8458 17.0338C19.632 17.0288 19.4243 17.1062 19.266 17.25L16.8276 19.6892L16.8335 6.83333C16.8335 6.61232 16.7457 6.40036 16.5894 6.24408C16.4331 6.0878 16.2212 6 16.0001 6V6C15.7791 6 15.5672 6.0878 15.4109 6.24408C15.2546 6.40036 15.1668 6.61232 15.1668 6.83333L15.1593 19.6733L12.7343 17.25C12.5779 17.0937 12.3659 17.006 12.1449 17.0061C11.9238 17.0062 11.7118 17.0941 11.5556 17.2504C11.3993 17.4068 11.3116 17.6188 11.3116 17.8399C11.3117 18.0609 11.3996 18.2729 11.556 18.4292L14.2318 21.1017Z" fill="white"/>
<path d="M25.1667 19.3332C24.9457 19.3332 24.7337 19.421 24.5774 19.5773C24.4211 19.7336 24.3333 19.9455 24.3333 20.1666V23.4999C24.3333 23.7209 24.2455 23.9329 24.0893 24.0891C23.933 24.2454 23.721 24.3332 23.5 24.3332H8.5C8.27899 24.3332 8.06702 24.2454 7.91074 24.0891C7.75446 23.9329 7.66667 23.7209 7.66667 23.4999V20.1666C7.66667 19.9455 7.57887 19.7336 7.42259 19.5773C7.26631 19.421 7.05435 19.3332 6.83333 19.3332V19.3332C6.61232 19.3332 6.40036 19.421 6.24408 19.5773C6.0878 19.7336 6 19.9455 6 20.1666V23.4999C6 24.1629 6.26339 24.7988 6.73223 25.2676C7.20107 25.7365 7.83696 25.9999 8.5 25.9999H23.5C24.163 25.9999 24.7989 25.7365 25.2678 25.2676C25.7366 24.7988 26 24.1629 26 23.4999V20.1666C26 19.9455 25.9122 19.7336 25.7559 19.5773C25.5996 19.421 25.3877 19.3332 25.1667 19.3332Z" fill="white"/>
</g>
<defs>
<linearGradient id="paint0_linear_162_1933" x1="0" y1="16" x2="32" y2="16" gradientUnits="userSpaceOnUse">
<stop stop-color="#1D5480"/>
<stop offset="1" stop-color="#3D9EEB"/>
</linearGradient>
<clipPath id="clip0_162_1933">
<rect width="20" height="20" fill="white" transform="translate(6 6)"/>
</clipPath>
</defs>
</svg>
