<svg width="24" height="24" viewBox="0 0 24 24" fill="none" xmlns="http://www.w3.org/2000/svg">
<path d="M6.41005 9H17.5901C17.7878 9.00083 17.9809 9.06028 18.1449 9.17085C18.3089 9.28141 18.4364 9.43811 18.5113 9.62115C18.5862 9.80418 18.6052 10.0053 18.5658 10.1991C18.5264 10.3929 18.4305 10.5707 18.2901 10.71L12.7101 16.29C12.6171 16.3837 12.5065 16.4581 12.3846 16.5089C12.2628 16.5596 12.1321 16.5858 12.0001 16.5858C11.868 16.5858 11.7373 16.5596 11.6155 16.5089C11.4936 16.4581 11.383 16.3837 11.2901 16.29L5.71005 10.71C5.56963 10.5707 5.47366 10.3929 5.43428 10.1991C5.39489 10.0053 5.41386 9.80418 5.48879 9.62115C5.56371 9.43811 5.69123 9.28141 5.85521 9.17085C6.01919 9.06028 6.21228 9.00083 6.41005 9V9Z" fill="white"/>
</svg>
