<svg width="24" height="24" viewBox="0 0 24 24" fill="none" xmlns="http://www.w3.org/2000/svg">
<path d="M17.5899 15L6.40995 15C6.21217 14.9992 6.01909 14.9397 5.8551 14.8292C5.69112 14.7186 5.5636 14.5619 5.48868 14.3789C5.41375 14.1958 5.39478 13.9947 5.43417 13.8009C5.47355 13.6071 5.56952 13.4293 5.70995 13.29L11.2899 7.71001C11.3829 7.61628 11.4935 7.54189 11.6154 7.49112C11.7372 7.44035 11.8679 7.41422 11.9999 7.41422C12.132 7.41422 12.2627 7.44035 12.3845 7.49112C12.5064 7.54189 12.617 7.61628 12.7099 7.71001L18.2899 13.29C18.4304 13.4293 18.5263 13.6071 18.5657 13.8009C18.6051 13.9947 18.5861 14.1958 18.5112 14.3789C18.4363 14.5619 18.3088 14.7186 18.1448 14.8292C17.9808 14.9397 17.7877 14.9992 17.5899 15V15Z" fill="white"/>
</svg>
