<svg width="36" height="37" viewBox="0 0 36 37" fill="none" xmlns="http://www.w3.org/2000/svg">
<path d="M9.00033 13.25C9.19774 13.2489 9.39344 13.2867 9.57619 13.3614C9.75895 13.436 9.92517 13.546 10.0653 13.685L16.9353 20.57C17.0748 20.7106 17.2407 20.8222 17.4235 20.8984C17.6063 20.9745 17.8023 21.0137 18.0003 21.0137C18.1983 21.0137 18.3944 20.9745 18.5772 20.8984C18.76 20.8222 18.9259 20.7106 19.0653 20.57L25.9353 13.685C26.2178 13.4026 26.6009 13.2439 27.0003 13.2439C27.3998 13.2439 27.7829 13.4026 28.0653 13.685C28.3478 13.9675 28.5065 14.3506 28.5065 14.75C28.5065 14.9478 28.4675 15.1437 28.3918 15.3264C28.3161 15.5092 28.2052 15.6752 28.0653 15.815L21.1803 22.685C20.3254 23.5064 19.1859 23.9651 18.0003 23.9651C16.8148 23.9651 15.6752 23.5064 14.8203 22.685L7.93533 15.815C7.79474 15.6756 7.68315 15.5097 7.60699 15.3269C7.53084 15.1441 7.49163 14.9481 7.49163 14.75C7.49163 14.552 7.53084 14.356 7.60699 14.1732C7.68315 13.9904 7.79474 13.8245 7.93533 13.685C8.07549 13.546 8.24171 13.436 8.42447 13.3614C8.60723 13.2867 8.80292 13.2489 9.00033 13.25Z" fill="url(#paint0_linear_131_1953)"/>
<defs>
<linearGradient id="paint0_linear_131_1953" x1="28.5065" y1="18.6045" x2="7.49163" y2="18.6045" gradientUnits="userSpaceOnUse">
<stop stop-color="#1D5480"/>
<stop offset="1" stop-color="#3D9EEB"/>
</linearGradient>
</defs>
</svg>
