<svg width="32" height="32" viewBox="0 0 32 32" fill="none" xmlns="http://www.w3.org/2000/svg">
<path d="M16 0L29.8564 8V24L16 32L2.14359 24V8L16 0Z" fill="black"/>
<g clip-path="url(#clip0_170_1938)">
<path d="M22.2792 8.60171L20.8992 7.22005C20.5131 6.83197 20.0538 6.52433 19.548 6.31492C19.0422 6.1055 18.4999 5.99848 17.9525 6.00005H12.6667C11.562 6.00137 10.503 6.44078 9.72185 7.2219C8.94073 8.00301 8.50132 9.06205 8.5 10.1667V21.8334C8.50132 22.938 8.94073 23.9971 9.72185 24.7782C10.503 25.5593 11.562 25.9987 12.6667 26H19.3333C20.438 25.9987 21.497 25.5593 22.2782 24.7782C23.0593 23.9971 23.4987 22.938 23.5 21.8334V11.5475C23.5013 11.0002 23.3941 10.458 23.1846 9.95237C22.975 9.44673 22.6673 8.98765 22.2792 8.60171V8.60171ZM21.1008 9.78005C21.219 9.89781 21.3249 10.0274 21.4167 10.1667H19.3333V8.08338C19.4724 8.17615 19.6022 8.2822 19.7208 8.40005L21.1008 9.78005ZM21.8333 21.8334C21.8333 22.4964 21.5699 23.1323 21.1011 23.6011C20.6323 24.07 19.9964 24.3334 19.3333 24.3334H12.6667C12.0036 24.3334 11.3677 24.07 10.8989 23.6011C10.4301 23.1323 10.1667 22.4964 10.1667 21.8334V10.1667C10.1667 9.50367 10.4301 8.86779 10.8989 8.39895C11.3677 7.93011 12.0036 7.66671 12.6667 7.66671H17.6667V10.1667C17.6667 10.6087 17.8423 11.0327 18.1548 11.3452C18.4674 11.6578 18.8913 11.8334 19.3333 11.8334H21.8333V21.8334ZM19.3333 13.5C19.5543 13.5 19.7663 13.5878 19.9226 13.7441C20.0789 13.9004 20.1667 14.1124 20.1667 14.3334C20.1667 14.5544 20.0789 14.7664 19.9226 14.9226C19.7663 15.0789 19.5543 15.1667 19.3333 15.1667H12.6667C12.4457 15.1667 12.2337 15.0789 12.0774 14.9226C11.9211 14.7664 11.8333 14.5544 11.8333 14.3334C11.8333 14.1124 11.9211 13.9004 12.0774 13.7441C12.2337 13.5878 12.4457 13.5 12.6667 13.5H19.3333ZM20.1667 17.6667C20.1667 17.8877 20.0789 18.0997 19.9226 18.256C19.7663 18.4123 19.5543 18.5 19.3333 18.5H12.6667C12.4457 18.5 12.2337 18.4123 12.0774 18.256C11.9211 18.0997 11.8333 17.8877 11.8333 17.6667C11.8333 17.4457 11.9211 17.2337 12.0774 17.0775C12.2337 16.9212 12.4457 16.8334 12.6667 16.8334H19.3333C19.5543 16.8334 19.7663 16.9212 19.9226 17.0775C20.0789 17.2337 20.1667 17.4457 20.1667 17.6667ZM20.0067 20.5109C20.1362 20.6891 20.1899 20.9113 20.156 21.129C20.1221 21.3467 20.0034 21.5421 19.8258 21.6725C18.9815 22.2742 17.9815 22.6194 16.9458 22.6667C16.3407 22.6638 15.754 22.4584 15.2792 22.0834C15.0058 21.8959 14.9017 21.8334 14.6958 21.8334C14.1387 21.9196 13.613 22.1474 13.1692 22.495C12.9931 22.6205 12.7752 22.6727 12.5614 22.6405C12.3476 22.6084 12.1547 22.4944 12.0234 22.3226C11.8921 22.1508 11.8327 21.9348 11.8577 21.72C11.8827 21.5053 11.9902 21.3087 12.1575 21.1717C12.8918 20.6017 13.7736 20.253 14.6992 20.1667C15.2543 20.1756 15.7909 20.3675 16.2258 20.7125C16.4241 20.8909 16.6793 20.9928 16.9458 21C17.6272 20.949 18.2825 20.7162 18.8433 20.3259C19.0222 20.1963 19.2452 20.1429 19.4633 20.1776C19.6814 20.2123 19.8769 20.3322 20.0067 20.5109V20.5109Z" fill="#3DEB8A"/>
</g>
<defs>
<clipPath id="clip0_170_1938">
<rect width="20" height="20" fill="white" transform="translate(6 6)"/>
</clipPath>
</defs>
</svg>
