<svg width="56" height="57" viewBox="0 0 56 57" fill="none" xmlns="http://www.w3.org/2000/svg">
<g clip-path="url(#clip0_37_5836)">
<path d="M28 0.5C12.5375 0.5 0 13.0375 0 28.5C0 43.9625 12.5375 56.5 28 56.5C43.4625 56.5 56 43.9625 56 28.5C56 13.0375 43.4625 0.5 28 0.5ZM37.0062 28.9313L23.3563 38.8625C23.2814 38.9163 23.1932 38.9484 23.1013 38.9553C23.0094 38.9622 22.9174 38.9436 22.8354 38.9016C22.7533 38.8597 22.6845 38.7959 22.6363 38.7173C22.5882 38.6387 22.5626 38.5484 22.5625 38.4562V18.6063C22.5622 18.5139 22.5875 18.4233 22.6355 18.3444C22.6836 18.2656 22.7525 18.2016 22.8347 18.1595C22.9169 18.1175 23.0091 18.099 23.1012 18.1061C23.1932 18.1133 23.2815 18.1458 23.3563 18.2L37.0062 28.125C37.0707 28.1706 37.1233 28.231 37.1596 28.3012C37.196 28.3713 37.2149 28.4491 37.2149 28.5281C37.2149 28.6071 37.196 28.6849 37.1596 28.7551C37.1233 28.8252 37.0707 28.8856 37.0062 28.9313Z" fill="url(#paint0_linear_37_5836)"/>
</g>
<defs>
<linearGradient id="paint0_linear_37_5836" x1="0" y1="28.5" x2="56" y2="28.5" gradientUnits="userSpaceOnUse">
<stop stop-color="#AD2A32"/>
<stop offset="1" stop-color="#EB3D47"/>
</linearGradient>
<clipPath id="clip0_37_5836">
<rect width="56" height="56" fill="white" transform="translate(0 0.5)"/>
</clipPath>
</defs>
</svg>
