<svg width="32" height="32" viewBox="0 0 32 32" fill="none" xmlns="http://www.w3.org/2000/svg">
<rect width="32" height="32" rx="16" fill="url(#paint0_linear_162_1935)"/>
<g clip-path="url(#clip0_162_1935)">
<path d="M15.1724 8.14845L15.1665 21.0134C15.1665 21.2345 15.2543 21.4464 15.4106 21.6027C15.5669 21.759 15.7788 21.8468 15.9999 21.8468C16.2209 21.8468 16.4328 21.759 16.5891 21.6027C16.7454 21.4464 16.8332 21.2345 16.8332 21.0134L16.839 8.16262L19.2657 10.5901C19.422 10.7463 19.6339 10.8341 19.8549 10.8341C20.0758 10.8341 20.2878 10.7463 20.444 10.5901V10.5901C20.6003 10.4338 20.688 10.2219 20.688 10.0009C20.688 9.77998 20.6003 9.56806 20.444 9.41178L17.7682 6.73262C17.536 6.5003 17.2604 6.31601 16.9569 6.19027C16.6535 6.06453 16.3283 5.99982 15.9999 5.99982C15.6714 5.99982 15.3462 6.06453 15.0428 6.19027C14.7394 6.31601 14.4637 6.5003 14.2315 6.73262L11.5557 9.40928C11.3995 9.56556 11.3117 9.77748 11.3117 9.99845C11.3117 10.2194 11.3995 10.4313 11.5557 10.5876V10.5876C11.712 10.7438 11.9239 10.8316 12.1449 10.8316C12.3658 10.8316 12.5778 10.7438 12.734 10.5876L15.1724 8.14845Z" fill="white"/>
<path d="M24.3333 20.1662V23.4995C24.3333 23.7205 24.2455 23.9325 24.0893 24.0887C23.933 24.245 23.721 24.3328 23.5 24.3328H8.5C8.27899 24.3328 8.06702 24.245 7.91074 24.0887C7.75446 23.9325 7.66667 23.7205 7.66667 23.4995V20.1662C7.66667 19.9451 7.57887 19.7332 7.42259 19.5769C7.26631 19.4206 7.05435 19.3328 6.83333 19.3328V19.3328C6.61232 19.3328 6.40036 19.4206 6.24408 19.5769C6.0878 19.7332 6 19.9451 6 20.1662V23.4995C6 24.1625 6.26339 24.7984 6.73223 25.2672C7.20107 25.7361 7.83696 25.9995 8.5 25.9995H23.5C24.163 25.9995 24.7989 25.7361 25.2678 25.2672C25.7366 24.7984 26 24.1625 26 23.4995V20.1662C26 19.9451 25.9122 19.7332 25.7559 19.5769C25.5996 19.4206 25.3877 19.3328 25.1667 19.3328C24.9457 19.3328 24.7337 19.4206 24.5774 19.5769C24.4211 19.7332 24.3333 19.9451 24.3333 20.1662Z" fill="white"/>
</g>
<defs>
<linearGradient id="paint0_linear_162_1935" x1="0" y1="16" x2="32" y2="16" gradientUnits="userSpaceOnUse">
<stop stop-color="#1D5480"/>
<stop offset="1" stop-color="#3D9EEB"/>
</linearGradient>
<clipPath id="clip0_162_1935">
<rect width="20" height="20" fill="white" transform="translate(6 6)"/>
</clipPath>
</defs>
</svg>
