<svg width="508" height="97" viewBox="0 0 508 97" fill="none" xmlns="http://www.w3.org/2000/svg">
<path d="M59.6298 95.86C57.8564 95.9533 56.1298 95.3467 54.4498 94.04C52.8631 92.8267 51.8364 91.0067 51.3698 88.58C50.1564 88.3933 49.2231 87.1333 48.5698 84.8C47.9164 82.4667 47.5898 79.9 47.5898 77.1C47.5898 74.86 47.8231 72.7133 48.2898 70.66C48.8498 68.6067 49.6898 67.1133 50.8098 66.18C51.9298 63.8467 53.3764 61.56 55.1498 59.32C57.0164 56.9867 58.9764 54.98 61.0298 53.3C63.1764 51.62 65.2298 50.5933 67.1898 50.22C68.0298 50.1267 69.1498 50.4067 70.5498 51.06C72.0431 51.62 72.7898 52.9733 72.7898 55.12C74.3764 56.24 75.8698 57.1267 77.2698 57.78C78.7631 58.34 79.3698 59.04 79.0898 59.88V60.3C79.0898 60.58 79.0898 60.86 79.0898 61.14C79.1831 61.42 79.2298 61.7933 79.2298 62.26C79.2298 62.9133 78.9964 63.7067 78.5298 64.64C78.0631 65.48 76.8964 66.5533 75.0298 67.86C74.3764 68.3267 73.7231 68.56 73.0698 68.56C72.5098 68.56 72.2298 68.2333 72.2298 67.58C72.2298 66.8333 72.6964 65.6667 73.6298 64.08C74.2831 62.96 74.6098 61.9333 74.6098 61C74.6098 59.7867 73.9564 59.3667 72.6498 59.74C70.6898 60.3933 68.5431 61.7 66.2098 63.66C63.9698 65.62 61.7764 67.9533 59.6298 70.66C57.4831 73.3667 55.7098 76.2133 54.3098 79.2C54.3098 79.3867 54.2164 79.76 54.0298 80.32C53.9364 81.2533 53.8431 82 53.7498 82.56C53.6564 83.0267 53.6098 83.7733 53.6098 84.8C53.6098 85.92 53.9364 87.2733 54.5898 88.86C55.2431 90.4467 56.0364 91.0533 56.9698 90.68C58.9298 90.12 61.0764 89 63.4098 87.32C65.7431 85.5467 68.0764 83.54 70.4098 81.3C72.7431 78.9667 74.8898 76.7267 76.8498 74.58C78.8098 72.34 80.3964 70.4733 81.6098 68.98C83.6631 66.46 86.0431 63.24 88.7498 59.32C91.4564 55.3067 94.3031 51.0133 97.2898 46.44C100.276 41.8667 103.123 37.2933 105.83 32.72C108.63 28.1467 111.103 23.9 113.25 19.98C115.396 16.06 116.936 12.8867 117.87 10.46C117.496 10.3667 117.123 10.32 116.75 10.32C116.376 10.32 115.956 10.32 115.49 10.32C112.316 10.32 108.723 10.8333 104.71 11.86C100.79 12.7933 97.1964 13.82 93.9298 14.94C93.2764 15.22 91.9231 15.92 89.8698 17.04C87.8164 18.16 85.6231 19.6067 83.2898 21.38C80.9564 23.1533 78.8564 25.16 76.9898 27.4C75.1231 29.5467 73.9564 31.8333 73.4898 34.26C73.5831 34.54 73.6298 34.82 73.6298 35.1C73.7231 35.38 73.7698 35.66 73.7698 35.94C73.7698 37.4333 73.0698 38.18 71.6698 38.18C70.4564 38.18 69.1031 37.4333 67.6098 35.94C66.2098 34.4467 65.5098 32.3467 65.5098 29.64C65.5098 26.3733 66.1164 23.76 67.3298 21.8C68.6364 19.7467 69.3364 18.6733 69.4298 18.58L70.6898 17.46C74.0498 14.94 76.9431 12.84 79.3698 11.16C81.8898 9.48 84.2698 8.22 86.5098 7.38C88.8431 6.44666 91.3631 5.79333 94.0698 5.42C96.7764 5.04667 100.09 4.86 104.01 4.86C108.49 4.86 113.39 5.56 118.71 6.96C118.616 6.86666 118.523 6.77333 118.43 6.68C118.336 6.58666 118.243 6.49333 118.15 6.4C120.016 6.77333 121.79 7.42666 123.47 8.36C123.843 8.36 124.03 8.21999 124.03 7.93999C124.03 7.56666 123.796 7.28666 123.33 7.09999C122.396 6.82 121.463 6.54 120.53 6.26C119.596 5.98 118.663 5.74666 117.73 5.56L118.15 6.4C113.203 5.09333 107.883 4.44 102.19 4.44C100.416 4.44 98.6898 4.53333 97.0098 4.71999C95.4231 4.81333 93.9298 4.95333 92.5298 5.13999C92.1564 5.23333 91.7831 5.32666 91.4098 5.42C91.4098 5.42 91.4564 5.42 91.5498 5.42C91.6431 5.42 91.9698 5.32666 92.5298 5.13999C94.3031 4.85999 96.1231 4.62666 97.9898 4.44C99.9498 4.15999 101.91 4.01999 103.87 4.01999C106.11 4.01999 108.396 4.15999 110.73 4.44C113.063 4.72 115.396 5.09333 117.73 5.56C117.636 5.28 117.543 4.99999 117.45 4.71999C117.45 4.44 117.45 4.20666 117.45 4.01999C117.45 2.34 118.15 1.31333 119.55 0.939999C119.83 0.846661 120.063 0.799992 120.25 0.799992C120.53 0.70666 120.81 0.659994 121.09 0.659994C122.863 0.659994 124.496 1.31333 125.99 2.61999C127.576 3.92666 128.416 5.51333 128.51 7.38C130.19 8.31333 131.03 9.62 131.03 11.3C131.03 12.8867 130.423 14.66 129.21 16.62C128.09 18.58 126.736 20.4467 125.15 22.22C123.656 23.9933 122.303 25.4867 121.09 26.7C118.85 30.4333 116.61 34.1667 114.37 37.9C112.223 41.54 110.403 44.5733 108.91 47C107.416 49.4267 106.67 50.7333 106.67 50.92C106.67 51.1067 107.79 49.4733 110.03 46.02C110.776 44.9 111.756 43.4067 112.97 41.54C114.183 39.6733 115.35 37.8067 116.47 35.94C117.683 33.98 118.663 32.3933 119.41 31.18C120.156 29.8733 120.53 29.2667 120.53 29.36C119.69 30.76 118.43 32.9533 116.75 35.94C115.163 38.9267 113.25 42.2867 111.01 46.02C108.863 49.66 106.53 53.3 104.01 56.94C110.076 55.26 115.863 52.9733 121.37 50.08C126.876 47.0933 132.336 43.6867 137.75 39.86C139.616 38.5533 141.996 36.5933 144.89 33.98C147.783 31.3667 150.676 28.4733 153.57 25.3C156.463 22.1267 158.89 19.0467 160.85 16.06C162.81 13.0733 163.79 10.5067 163.79 8.36C163.79 7.42666 163.603 6.54 163.23 5.7C162.95 4.86 162.81 4.11333 162.81 3.46C162.81 2.80666 163.09 2.33999 163.65 2.05999C164.21 1.68666 165.283 1.5 166.87 1.5C168.83 1.5 170.51 2.62 171.91 4.86C173.403 7.00667 174.15 9.57333 174.15 12.56C174.15 15.8267 173.076 19.1867 170.93 22.64C168.876 26.0933 166.076 29.5 162.53 32.86C158.983 36.22 155.016 39.3933 150.63 42.38C153.99 40.2333 157.35 37.8533 160.71 35.24C164.163 32.5333 167.056 29.6867 169.39 26.7C166.776 30.4333 163.836 33.7 160.57 36.5C157.396 39.3 153.756 41.96 149.65 44.48C145.543 46.9067 140.83 49.5667 135.51 52.46C134.39 53.1133 132.943 53.7667 131.17 54.42C129.396 54.98 127.436 55.6333 125.29 56.38C129.49 54.7933 133.736 52.7867 138.03 50.36C142.416 47.84 146.616 45.18 150.63 42.38C147.456 44.4333 144.516 46.16 141.81 47.56C139.103 48.96 137.19 49.9867 136.07 50.64C133.923 51.8533 131.543 52.9733 128.93 54C126.316 55.0267 123.843 55.9133 121.51 56.66C119.176 57.4067 117.31 58.0133 115.91 58.48L104.85 62.26H105.41L103.87 62.68C103.683 62.68 104.01 62.54 104.85 62.26C103.45 62.3533 102.283 62.3533 101.35 62.26C106.856 69.54 111.43 74.44 115.07 76.96C118.71 79.3867 121.65 80.6 123.89 80.6C126.036 80.6 127.67 80.04 128.79 78.92C129.91 77.7067 130.703 76.82 131.17 76.26C131.916 75.3267 132.71 74.86 133.55 74.86C133.923 74.86 134.11 75.0467 134.11 75.42C134.11 75.5133 134.063 75.6533 133.97 75.84C133.97 76.0267 133.923 76.26 133.83 76.54C133.27 78.0333 132.29 79.6667 130.89 81.44C129.49 83.2133 127.95 84.8933 126.27 86.48C126.736 86.76 127.156 87.2267 127.53 87.88C127.903 88.3467 127.483 89.0933 126.27 90.12C125.056 91.24 123.656 92.1733 122.07 92.92C120.483 93.76 119.316 94.0867 118.57 93.9C116.05 93.2467 114.37 92.4533 113.53 91.52C112.783 90.68 112.363 89.84 112.27 89C109.656 86.9467 106.903 83.96 104.01 80.04C101.116 76.0267 99.0164 71.3133 97.7098 65.9C95.7498 68.7933 93.5564 71.92 91.1298 75.28C88.7964 78.5467 86.0898 81.6733 83.0098 84.66C80.0231 87.6467 76.6164 90.1667 72.7898 92.22C68.9631 94.2733 64.5764 95.4867 59.6298 95.86ZM70.1298 17.74C70.3164 17.5533 70.6898 17.04 71.2498 16.2C71.8098 15.2667 72.2298 14.66 72.5098 14.38C74.6564 12.2333 76.8498 10.6467 79.0898 9.62C81.3298 8.49999 83.8031 7.51999 86.5098 6.68L87.9098 6.26C87.4431 6.35333 86.1364 6.91333 83.9898 7.93999C81.8431 8.96666 79.4631 10.32 76.8498 12C74.3298 13.68 72.0898 15.5933 70.1298 17.74ZM105.41 62.26C107.276 61.7933 109.843 61.14 113.11 60.3C116.376 59.46 119.69 58.4333 123.05 57.22C119.596 58.4333 116.376 59.5067 113.39 60.44C110.403 61.3733 107.743 61.98 105.41 62.26ZM148.872 90.7C148.472 90.7 147.838 90.2333 146.972 89.3C146.172 88.4333 145.338 87.4667 144.472 86.4C143.672 85.2667 143.072 84.4333 142.672 83.9C143.272 81.3 144.305 78.6 145.772 75.8C147.305 72.9333 149.072 70.1333 151.072 67.4C153.072 64.6667 155.072 62.1333 157.072 59.8C159.138 57.4667 160.938 55.5 162.472 53.9C161.338 54.7667 160.138 55.9 158.872 57.3C157.605 58.6333 156.738 59.5333 156.272 60C155.472 60.8 154.672 61.6 153.872 62.4C153.072 63.1333 152.338 63.8667 151.672 64.6C153.672 62.1333 155.638 59.8667 157.572 57.8C159.572 55.7333 161.005 54.3667 161.872 53.7C162.072 53.5 162.338 53.2667 162.672 53C163.072 52.7333 163.505 52.5667 163.972 52.5L164.772 51.6C166.572 51.6667 168.505 52.2333 170.572 53.3C172.638 54.3 174.405 55.6333 175.872 57.3C177.405 58.9 178.205 60.7333 178.272 62.8C178.272 63.0667 178.138 63.3333 177.872 63.6C177.605 63.8 177.405 63.6667 177.272 63.2C176.805 62.2 176.272 61.3 175.672 60.5C175.072 59.7 174.405 59.0667 173.672 58.6C173.005 58.2 172.305 58 171.572 58C170.772 58 170.038 58.2667 169.372 58.8C168.038 59.8 166.438 61.3 164.572 63.3C162.772 65.2333 160.938 67.3333 159.072 69.6C157.272 71.8667 155.638 74.0667 154.172 76.2C152.772 78.3333 151.805 80.1 151.272 81.5C151.672 81.0333 152.372 80.3667 153.372 79.5C154.372 78.6333 155.438 77.7667 156.572 76.9C157.705 75.9667 158.672 75.2 159.472 74.6C159.738 74.4 160.305 74 161.172 73.4C162.038 72.8 162.938 72.1667 163.872 71.5C164.872 70.8333 165.672 70.3333 166.272 70C166.272 70.1333 165.872 70.5 165.072 71.1C164.338 71.7 163.438 72.3667 162.372 73.1C161.305 73.8333 160.305 74.5 159.372 75.1C158.505 75.7 157.972 76.1 157.772 76.3C157.038 76.9667 156.172 77.7333 155.172 78.6C154.238 79.4667 153.372 80.2667 152.572 81C151.772 81.7333 151.238 82.2667 150.972 82.6C150.838 82.8667 150.805 83.0333 150.872 83.1C150.938 83.1667 151.072 83.0667 151.272 82.8C151.872 81.9333 152.772 81 153.972 80C155.172 79 156.472 78 157.872 77C159.338 75.9333 160.638 74.9667 161.772 74.1C163.105 73.1 164.305 72.2333 165.372 71.5C166.505 70.7 167.505 69.9667 168.372 69.3C168.438 67.9 168.938 66.9333 169.872 66.4C170.872 65.8667 171.638 65.7 172.172 65.9C172.572 66.0333 173.172 66.3 173.972 66.7C174.838 67.0333 175.605 67.4667 176.272 68C176.938 68.4667 177.138 69 176.872 69.6C176.405 70.6667 176.038 72.3333 175.772 74.6C175.572 76.8 175.472 78.8333 175.472 80.7C175.472 83.3667 176.305 84.7 177.972 84.7C178.838 84.7 180.005 84.2333 181.472 83.3C182.005 82.9667 182.405 82.8 182.672 82.8C182.872 82.8 182.972 82.9 182.972 83.1C182.972 83.3667 182.805 83.7667 182.472 84.3C182.138 84.7667 181.905 85.0667 181.772 85.2C180.972 86.0667 180.005 86.8667 178.872 87.6C177.805 88.2667 176.705 88.6 175.572 88.6C175.105 88.6 174.638 88.5333 174.172 88.4C173.705 88.2667 173.238 88.0333 172.772 87.7C171.105 86.5667 169.905 84.8333 169.172 82.5C168.505 80.1667 168.172 78.1667 168.172 76.5C168.172 76.1 168.172 75.7333 168.172 75.4C168.238 75.0667 168.305 74.7667 168.372 74.5C167.638 75.1 166.405 76.1333 164.672 77.6C163.005 79 161.138 80.6 159.072 82.4C157.005 84.1333 155.038 85.7667 153.172 87.3C151.305 88.8333 149.872 89.9667 148.872 90.7ZM208.568 96.9C206.968 96.9 205.468 95.9333 204.068 94C202.802 92.2667 201.702 90 200.768 87.2C199.835 84.4 199.368 81.5667 199.368 78.7C199.368 78.1667 199.368 77.6667 199.368 77.2C199.435 76.6667 199.502 76.1667 199.568 75.7C199.768 74.5 200.402 73.6667 201.468 73.2C202.602 72.6667 203.402 72.5 203.868 72.7C204.002 72.7 204.168 72.7333 204.368 72.8C204.568 72.8667 204.802 72.9667 205.068 73.1C206.602 72.3667 208.435 71 210.568 69C212.702 67 214.502 64.6667 215.968 62C216.835 60.4667 217.268 59.4333 217.268 58.9C217.268 58.3 216.835 58.2667 215.968 58.8C215.168 59.3333 214.268 60.0333 213.268 60.9C212.335 61.7 211.602 62.3333 211.068 62.8C207.002 66.4667 203.068 69.8333 199.268 72.9C195.468 75.9667 192.235 79.3 189.568 82.9C188.635 84.1667 187.835 85.3 187.168 86.3C186.502 87.2333 186.102 88.1333 185.968 89C184.368 87.8667 183.302 86.8 182.768 85.8C182.235 84.8 181.968 83.8333 181.968 82.9C181.968 82.3667 182.035 81.8667 182.168 81.4C182.235 80.9333 182.335 80.4667 182.468 80C182.868 78.6 183.902 76.5 185.568 73.7C187.302 70.9 189.402 67.7 191.868 64.1C194.335 60.5 196.968 56.7667 199.768 52.9C202.568 49.0333 205.268 45.3333 207.868 41.8C210.468 38.2667 212.768 35.1667 214.768 32.5C216.768 29.8333 218.168 27.9333 218.968 26.8C218.635 27 218.368 27.1667 218.168 27.3C218.035 27.3667 217.735 27.6667 217.268 28.2C216.868 28.6667 216.102 29.6 214.968 31C213.302 33.1333 212.402 34.2 212.268 34.2C212.202 34.2 212.402 33.8333 212.868 33.1C213.335 32.3667 213.935 31.4667 214.668 30.4C215.402 29.2667 216.135 28.2 216.868 27.2C217.602 26.2 218.168 25.4667 218.568 25C218.968 24.6 219.268 24.4 219.468 24.4C219.602 24.4 219.768 24.4667 219.968 24.6C220.235 24.6667 220.602 24.7667 221.068 24.9C221.602 25.0333 222.335 25.5 223.268 26.3C224.268 27.1 225.102 28 225.768 29C226.502 29.9333 226.735 30.7667 226.468 31.5C225.668 32.3 224.402 33.7 222.668 35.7C220.935 37.7 218.868 40.0667 216.468 42.8C214.135 45.5333 211.668 48.4667 209.068 51.6C206.468 54.6667 203.902 57.7333 201.368 60.8C198.835 63.8 196.502 66.6 194.368 69.2C192.235 71.7333 190.502 73.8667 189.168 75.6C187.835 77.3333 187.068 78.4 186.868 78.8C187.535 78.4667 188.702 77.5 190.368 75.9C192.102 74.3 194.168 72.3667 196.568 70.1C198.968 67.7667 201.535 65.3667 204.268 62.9C207.002 60.3667 209.735 58.0333 212.468 55.9C215.268 53.7 217.902 51.9667 220.368 50.7C221.302 50.7 222.335 51.1 223.468 51.9C224.668 52.7 225.368 53.5 225.568 54.3C226.702 54.8333 227.268 55.7 227.268 56.9C227.268 58.1 226.735 59.4 225.668 60.8C224.668 62.2 223.668 63.3667 222.668 64.3C222.202 64.7667 221.702 65.2 221.168 65.6C220.702 66 220.202 66.4 219.668 66.8C220.802 65.6667 221.868 64.4 222.868 63C223.935 61.6 224.968 60.0333 225.968 58.3C226.102 57.9667 226.135 57.6 226.068 57.2C226.068 56.7333 225.935 56.8 225.668 57.4C224.602 59.8 223.235 62 221.568 64C219.902 66 218.135 67.8 216.268 69.4C216.802 69.0667 217.335 68.7 217.868 68.3C218.468 67.8333 219.035 67.3667 219.568 66.9C218.102 68.5667 216.602 69.9667 215.068 71.1C213.535 72.1667 212.102 73.0333 210.768 73.7C210.635 73.7667 210.502 73.8333 210.368 73.9C210.235 73.9667 210.135 74 210.068 74L211.368 73.1C213.035 71.9667 214.668 70.7333 216.268 69.4C214.268 70.7333 212.468 71.8 210.868 72.6C209.268 73.4 208.002 73.9667 207.068 74.3C207.802 74.7667 208.102 75.3 207.968 75.9C207.902 76.3667 207.835 77.4333 207.768 79.1C207.702 80.7 207.668 82.4 207.668 84.2C207.668 85.2 207.668 86.1667 207.668 87.1C207.668 87.9667 207.702 88.7667 207.768 89.5C207.902 92.2333 208.668 93.6 210.068 93.6C210.735 93.6 211.702 93.1333 212.968 92.2C213.368 91.8667 213.702 91.7 213.968 91.7C214.102 91.7 214.168 91.8 214.168 92C214.168 93.0667 213.568 94.1333 212.368 95.2C211.168 96.3333 209.902 96.9 208.568 96.9ZM232.378 89.8C231.444 89.8 230.444 89.6 229.378 89.2C228.378 88.8667 227.478 88.3333 226.678 87.6C225.878 86.8667 225.011 85.7667 224.078 84.3C223.211 82.7667 222.778 81.2667 222.778 79.8C222.778 79.2 222.878 78.6667 223.078 78.2C225.211 72.4667 228.678 67.2333 233.478 62.5C238.278 57.7 244.144 53.6667 251.078 50.4C252.011 50.4 252.978 50.7667 253.978 51.5C254.978 52.1667 255.811 53 256.478 54L258.278 54.6C258.211 53.8667 257.978 53.4333 257.578 53.3C257.178 53.1 256.978 52.8333 256.978 52.5C257.111 51.9 257.544 51.5667 258.278 51.5C259.011 51.3667 259.544 51.3 259.878 51.3C260.944 51.3 261.811 51.8 262.478 52.8C263.211 53.7333 263.611 54.7667 263.678 55.9C265.278 56.1 266.944 56.2333 268.678 56.3C270.411 56.3667 271.911 56.4333 273.178 56.5C274.511 56.5 275.244 56.5 275.378 56.5H275.678C275.878 56.5 275.978 56.6333 275.978 56.9C275.978 57.3667 275.711 57.7667 275.178 58.1C274.511 58.6333 272.944 59 270.478 59.2C268.078 59.3333 265.544 59.4 262.878 59.4C262.544 60.4 262.044 61.4667 261.378 62.6C260.711 63.7333 259.944 64.9 259.078 66.1C258.478 66.9667 257.578 68.1333 256.378 69.6C255.178 71 253.944 72.4333 252.678 73.9C251.411 75.3667 250.344 76.6 249.478 77.6C250.078 77.0667 251.044 76.1333 252.378 74.8C253.778 73.4 254.911 72.1667 255.778 71.1C256.111 70.7 256.611 70.0667 257.278 69.2C257.944 68.2667 258.578 67.4 259.178 66.6C259.844 65.7333 260.244 65.1667 260.378 64.9C259.511 66.7 258.411 68.4333 257.078 70.1C255.744 71.7667 254.411 73.2667 253.078 74.6C251.744 75.9333 250.611 77.0333 249.678 77.9C248.744 78.7 248.211 79.1667 248.078 79.3C245.278 82.2333 242.444 84.7333 239.578 86.8C236.778 88.8 234.378 89.8 232.378 89.8ZM229.178 86.4C229.511 86.4 229.911 86.3 230.378 86.1C231.111 85.7 232.044 85.0667 233.178 84.2C234.378 83.3333 235.611 82.4333 236.878 81.5C238.011 80.5667 239.278 79.4333 240.678 78.1C242.078 76.7 243.611 75.0667 245.278 73.2C246.744 71.5333 248.311 69.7333 249.978 67.8C251.644 65.8 253.278 63.7333 254.878 61.6L253.378 63C253.844 62.5333 254.411 61.9 255.078 61.1C255.811 60.2333 256.411 59.5667 256.878 59.1C254.811 58.9667 253.578 58.8667 253.178 58.8C253.111 58.9333 253.011 59 252.878 59C252.744 59 252.678 58.7667 252.678 58.3C252.678 58.1667 252.678 58 252.678 57.8C252.678 57.5333 252.711 57.2667 252.778 57C252.111 56.9333 251.378 57.0333 250.578 57.3C249.778 57.5667 248.878 58.1333 247.878 59C246.744 60.0667 245.278 61.4 243.478 63C241.678 64.6 239.811 66.4333 237.878 68.5C235.944 70.5 234.111 72.6667 232.378 75C230.711 77.3333 229.378 79.8 228.378 82.4C228.044 83.2 227.878 84 227.878 84.8C227.878 85.9333 228.378 86.2667 229.378 85.8C229.044 86 228.878 86.1333 228.878 86.2C228.878 86.3333 228.978 86.4 229.178 86.4ZM229.378 85.8C230.644 85.1333 232.644 83.7333 235.378 81.6C238.178 79.4 241.011 76.7333 243.878 73.6C244.811 72.6 245.878 71.4667 247.078 70.2C248.278 68.8667 249.444 67.6 250.578 66.4C251.711 65.2 252.578 64.2667 253.178 63.6C251.644 65.4667 250.211 67.1667 248.878 68.7C247.611 70.1667 246.378 71.5667 245.178 72.9C242.378 75.9 239.511 78.6 236.578 81C233.711 83.4 231.311 85 229.378 85.8Z" fill="url(#paint0_linear_96_138)"/>
<path d="M290.234 42.6C288.741 42.6 287.461 42.0933 286.394 41.08C285.381 40.0133 284.874 38.7333 284.874 37.24V37C282.954 37.0533 281.568 37.6667 280.714 38.84C279.861 40.0133 279.434 41.9333 279.434 44.6V49H288.314C289.381 49 290.208 49.2933 290.794 49.88C291.381 50.4667 291.674 51.24 291.674 52.2V53.8C291.674 54.76 291.381 55.5333 290.794 56.12C290.208 56.7067 289.381 57 288.314 57H279.434V80.84H282.714C283.728 80.84 284.501 81.08 285.034 81.56C285.568 82.04 285.834 82.7067 285.834 83.56V86.28C285.834 87.1333 285.568 87.8 285.034 88.28C284.501 88.76 283.728 89 282.714 89H268.234C266.154 89 265.114 88.0933 265.114 86.28V83.56C265.114 81.7467 266.154 80.84 268.234 80.84H269.994V57H265.914C264.848 57 264.021 56.7067 263.434 56.12C262.848 55.5333 262.554 54.76 262.554 53.8V52.2C262.554 51.24 262.848 50.4667 263.434 49.88C264.021 49.2933 264.848 49 265.914 49H269.994V44.36C269.994 39.6133 271.274 35.88 273.834 33.16C276.448 30.3867 279.994 29 284.474 29C287.888 29 290.608 29.7467 292.634 31.24C294.714 32.68 295.754 34.6267 295.754 37.08C295.754 38.7333 295.248 40.0667 294.234 41.08C293.221 42.0933 291.888 42.6 290.234 42.6ZM315.834 89.8C309.807 89.8 305.061 87.9867 301.594 84.36C298.127 80.68 296.394 75.6933 296.394 69.4C296.394 65.1333 297.194 61.4 298.794 58.2C300.447 55 302.767 52.5467 305.754 50.84C308.741 49.08 312.261 48.2 316.314 48.2C322.341 48.2 327.061 50.0133 330.474 53.64C333.941 57.2667 335.674 62.2267 335.674 68.52C335.674 72.7867 334.847 76.5467 333.194 79.8C331.594 83 329.301 85.48 326.314 87.24C323.327 88.9467 319.834 89.8 315.834 89.8ZM315.914 81.8C319.167 81.8 321.647 80.68 323.354 78.44C325.114 76.1467 325.994 72.8667 325.994 68.6C325.994 64.5467 325.167 61.48 323.514 59.4C321.861 57.2667 319.434 56.2 316.234 56.2C313.034 56.2 310.527 57.3467 308.714 59.64C306.954 61.9333 306.074 65.16 306.074 69.32C306.074 73.32 306.927 76.4133 308.634 78.6C310.341 80.7333 312.767 81.8 315.914 81.8ZM385.487 80.84C387.567 80.84 388.607 81.7467 388.607 83.56V86.28C388.607 88.0933 387.567 89 385.487 89H372.927C370.847 89 369.807 88.0933 369.807 86.28V83.56C369.807 81.7467 370.847 80.84 372.927 80.84H374.207V67.56C374.207 63.3467 373.727 60.4133 372.767 58.76C371.807 57.0533 370.127 56.2 367.727 56.2C366.02 56.2 364.393 56.76 362.847 57.88C361.353 58.9467 360.127 60.3867 359.167 62.2C358.26 64.0133 357.807 65.9333 357.807 67.96V80.84H359.087C361.167 80.84 362.207 81.7467 362.207 83.56V86.28C362.207 88.0933 361.167 89 359.087 89H346.527C344.447 89 343.407 88.0933 343.407 86.28V83.56C343.407 81.7467 344.447 80.84 346.527 80.84H348.287V57.16H346.527C344.447 57.16 343.407 56.2533 343.407 54.44V51.72C343.407 49.9067 344.447 49 346.527 49H354.367C355.327 49 356.127 49.3467 356.767 50.04C357.46 50.68 357.807 51.4533 357.807 52.36V57.32C358.927 54.6533 360.633 52.4667 362.927 50.76C365.273 49.0533 367.727 48.2 370.287 48.2C374.713 48.2 378.047 49.64 380.287 52.52C382.58 55.4 383.727 59.6133 383.727 65.16V80.84H385.487ZM403.036 42.04C401.223 42.04 399.703 41.4533 398.476 40.28C397.25 39.0533 396.636 37.5333 396.636 35.72C396.636 33.9067 397.25 32.3867 398.476 31.16C399.703 29.9333 401.223 29.32 403.036 29.32C404.85 29.32 406.37 29.9333 407.596 31.16C408.823 32.3867 409.436 33.9067 409.436 35.72C409.436 37.5333 408.823 39.0533 407.596 40.28C406.37 41.4533 404.85 42.04 403.036 42.04ZM397.916 89C395.836 89 394.796 88.0933 394.796 86.28V83.56C394.796 81.7467 395.836 80.84 397.916 80.84H399.676V57.16H397.916C395.836 57.16 394.796 56.2533 394.796 54.44V51.72C394.796 49.9067 395.836 49 397.916 49H405.756C406.716 49 407.516 49.3467 408.156 50.04C408.85 50.68 409.196 51.4533 409.196 52.36V80.84H410.876C412.956 80.84 413.996 81.7467 413.996 83.56V86.28C413.996 88.0933 412.956 89 410.876 89H397.916ZM460.401 80.84C462.481 80.84 463.521 81.7467 463.521 83.56V86.28C463.521 88.0933 462.481 89 460.401 89H446.081C444.001 89 442.961 88.0933 442.961 86.28V83.56C442.961 81.7467 444.001 80.84 446.081 80.84H450.481C449.521 80.84 448.561 80.68 447.601 80.36C446.694 79.9867 445.921 79.4267 445.281 78.68L440.321 72.68L433.761 80.84C435.841 80.84 436.881 81.7467 436.881 83.56V86.28C436.881 88.0933 435.841 89 433.761 89H423.041C420.961 89 419.921 88.0933 419.921 86.28V83.56C419.921 81.7467 420.961 80.84 423.041 80.84H425.281L435.361 68.28L425.681 57.16H423.521C421.441 57.16 420.401 56.2533 420.401 54.44V51.72C420.401 49.9067 421.441 49 423.521 49H437.201C439.281 49 440.321 49.9067 440.321 51.72V54.44C440.321 56.2533 439.281 57.16 437.201 57.16H433.441C435.574 57.16 437.334 57.88 438.721 59.32L443.041 64.6L449.041 57.16C447.014 57.16 446.001 56.2533 446.001 54.44V51.72C446.001 49.9067 447.041 49 449.121 49H460.081C462.161 49 463.201 49.9067 463.201 51.72V54.44C463.201 56.2533 462.161 57.16 460.081 57.16H457.201L447.841 68.76L458.241 80.84H460.401Z" fill="url(#paint1_linear_96_138)"/>
<defs>
<linearGradient id="paint0_linear_96_138" x1="0" y1="53.5" x2="508" y2="53.5" gradientUnits="userSpaceOnUse">
<stop stop-color="#AD2A32"/>
<stop offset="1" stop-color="#EB3D47"/>
</linearGradient>
<linearGradient id="paint1_linear_96_138" x1="0" y1="53.5" x2="508" y2="53.5" gradientUnits="userSpaceOnUse">
<stop stop-color="#1D5480"/>
<stop offset="1" stop-color="#3D9EEB"/>
</linearGradient>
</defs>
</svg>
