<svg width="300" height="300" viewBox="0 0 300 300" fill="none" xmlns="http://www.w3.org/2000/svg">
<g clip-path="url(#clip0_128_121)">
<rect width="300" height="300" fill="white"/>
<path d="M118.764 58.4508L123.007 62.6935M127.25 66.9361L131.492 71.1788M135.735 75.4214L139.978 79.664M144.22 83.9067L148.463 88.1493M152.706 92.392L156.948 96.6346M161.191 100.877L165.434 105.12M169.676 109.363L173.919 113.605M178.161 117.848L182.404 122.09M186.647 126.333L190.889 130.576M195.132 134.818L199.375 139.061M203.617 143.304L207.86 147.546M212.103 151.789L216.345 156.032M220.588 160.274L224.831 164.517M229.073 168.759L233.316 173.002M237.558 177.245L241.801 181.487M246.044 185.73L250.286 189.973M254.529 194.215L258.772 198.458M263.014 202.701L267.257 206.943M271.5 211.186L275.742 215.429M279.985 219.671L284.227 223.914M288.47 228.156L292.713 232.399M296.955 236.642L301.198 240.884M305.441 245.127L309.683 249.37M313.926 253.612L318.169 257.855M322.411 262.098L326.654 266.34M130.078 47.1371L134.321 51.3798M138.563 55.6224L142.806 59.865M147.049 64.1077L151.291 68.3503M155.534 72.593L159.777 76.8356M164.019 81.0782L168.262 85.3209M172.505 89.5635L176.747 93.8062M180.99 98.0488L185.233 102.291M189.475 106.534L193.718 110.777M197.96 115.019L202.203 119.262M206.446 123.505L210.688 127.747M214.931 131.99L219.174 136.233M223.416 140.475L227.659 144.718M231.902 148.96L236.144 153.203M240.387 157.446L244.63 161.688M248.872 165.931L253.115 170.174M257.357 174.416L261.6 178.659M265.843 182.902L270.085 187.144M274.328 191.387L278.571 195.63M282.813 199.872L287.056 204.115M291.299 208.357L295.541 212.6M299.784 216.843L304.026 221.085M308.269 225.328L312.512 229.571M316.754 233.813L320.997 238.056M325.24 242.299L329.482 246.541M333.725 250.784L337.968 255.027M141.392 35.8234L145.635 40.0661M149.877 44.3087L154.12 48.5513M158.362 52.794L162.605 57.0366M166.848 61.2793L171.09 65.5219M175.333 69.7645L179.576 74.0072M183.818 78.2498L188.061 82.4925M192.304 86.7351L196.546 90.9777M200.789 95.2204L205.032 99.463M209.274 103.706L213.517 107.948M217.759 112.191L222.002 116.434M226.245 120.676L230.487 124.919M234.73 129.162L238.973 133.404M243.215 137.647L247.458 141.889M251.701 146.132L255.943 150.375M260.186 154.617L264.428 158.86M268.671 163.103L272.914 167.345M277.156 171.588L281.399 175.831M285.642 180.073L289.884 184.316M294.127 188.558L298.37 192.801M302.612 197.044L306.855 201.286M311.098 205.529L315.34 209.772M319.583 214.014L323.825 218.257M328.068 222.5L332.311 226.742M336.553 230.985L340.796 235.228M345.039 239.47L349.281 243.713M152.706 24.5097L156.948 28.7523M161.191 32.995L165.434 37.2376M169.676 41.4803L173.919 45.7229M178.161 49.9656L182.404 54.2082M186.647 58.4508L190.889 62.6935M195.132 66.9361L199.375 71.1788M203.617 75.4214L207.86 79.664M212.103 83.9067L216.345 88.1493M220.588 92.392L224.831 96.6346M229.073 100.877L233.316 105.12M237.558 109.363L241.801 113.605M246.044 117.848L250.286 122.09M254.529 126.333L258.772 130.576M263.014 134.818L267.257 139.061M271.5 143.304L275.742 147.546M279.985 151.789L284.227 156.032M288.47 160.274L292.713 164.517M296.955 168.759L301.198 173.002M305.441 177.245L309.683 181.487M313.926 185.73L318.169 189.973M322.411 194.215L326.654 198.458M330.897 202.701L335.139 206.943M339.382 211.186L343.624 215.429M347.867 219.671L352.11 223.914M356.352 228.156L360.595 232.399M73.5097 103.706L77.7523 107.948M81.9949 112.191L86.2376 116.434M90.4802 120.676L94.7229 124.919M98.9655 129.162L103.208 133.404M107.451 137.647L111.693 141.889M115.936 146.132L120.179 150.375M124.421 154.617L128.664 158.86M132.907 163.103L137.149 167.345M141.392 171.588L145.635 175.831M149.877 180.073L154.12 184.316M158.362 188.558L162.605 192.801M166.848 197.044L171.09 201.286M175.333 205.529L179.576 209.772M183.818 214.014L188.061 218.257M192.304 222.5L196.546 226.742M200.789 230.985L205.032 235.228M209.274 239.47L213.517 243.713M217.759 247.955L222.002 252.198M226.245 256.441L230.487 260.683M234.73 264.926L238.973 269.169M243.215 273.411L247.458 277.654M251.701 281.897L255.943 286.139M260.186 290.382L264.428 294.624M268.671 298.867L272.914 303.11M277.156 307.352L281.399 311.595M84.8234 92.392L89.066 96.6346M93.3087 100.877L97.5513 105.12M101.794 109.363L106.037 113.605M110.279 117.848L114.522 122.09M118.764 126.333L123.007 130.576M127.25 134.818L131.492 139.061M135.735 143.304L139.978 147.546M144.22 151.789L148.463 156.032M152.706 160.274L156.948 164.517M161.191 168.759L165.434 173.002M169.676 177.245L173.919 181.487M178.161 185.73L182.404 189.973M186.647 194.215L190.889 198.458M195.132 202.701L199.375 206.943M203.617 211.186L207.86 215.429M212.103 219.671L216.345 223.914M220.588 228.156L224.831 232.399M229.073 236.642L233.316 240.884M237.558 245.127L241.801 249.37M246.044 253.612L250.286 257.855M254.529 262.098L258.772 266.34M263.014 270.583L267.257 274.826M271.5 279.068L275.742 283.311M279.985 287.553L284.227 291.796M288.47 296.039L292.713 300.281M96.1371 81.0782L100.38 85.3209M104.622 89.5635L108.865 93.8062M113.108 98.0488L117.35 102.291M121.593 106.534L125.836 110.777M130.078 115.019L134.321 119.262M138.563 123.505L142.806 127.747M147.049 131.99L151.291 136.233M155.534 140.475L159.777 144.718M164.019 148.96L168.262 153.203M172.505 157.446L176.747 161.688M180.99 165.931L185.233 170.174M189.475 174.416L193.718 178.659M197.96 182.902L202.203 187.144M206.446 191.387L210.688 195.63M214.931 199.872L219.174 204.115M223.416 208.357L227.659 212.6M231.902 216.843L236.144 221.085M240.387 225.328L244.63 229.571M248.872 233.813L253.115 238.056M257.357 242.299L261.6 246.541M265.843 250.784L270.085 255.027M274.328 259.269L278.571 263.512M282.813 267.754L287.056 271.997M291.299 276.24L295.541 280.482M299.784 284.725L304.026 288.968M107.451 69.7645L111.693 74.0072M115.936 78.2498L120.179 82.4925M124.421 86.7351L128.664 90.9777M132.907 95.2204L137.149 99.463M141.392 103.706L145.635 107.948M149.877 112.191L154.12 116.434M158.362 120.676L162.605 124.919M166.848 129.162L171.09 133.404M175.333 137.647L179.576 141.889M183.818 146.132L188.061 150.375M192.304 154.617L196.546 158.86M200.789 163.103L205.032 167.345M209.274 171.588L213.517 175.831M217.759 180.073L222.002 184.316M226.245 188.558L230.487 192.801M234.73 197.044L238.973 201.286M243.215 205.529L247.458 209.772M251.701 214.014L255.943 218.257M260.186 222.5L264.428 226.742M268.671 230.985L272.914 235.228M277.156 239.47L281.399 243.713M285.642 247.955L289.884 252.198M294.127 256.441L298.37 260.683M302.612 264.926L306.855 269.169M311.098 273.411L315.34 277.654M28.2548 148.96L32.4975 153.203M36.7401 157.446L40.9828 161.688M45.2254 165.931L49.468 170.174M53.7107 174.416L57.9533 178.659M62.196 182.902L66.4386 187.144M70.6812 191.387L74.9239 195.63M79.1665 199.872L83.4092 204.115M87.6518 208.357L91.8944 212.6M96.1371 216.843L100.38 221.085M104.622 225.328L108.865 229.571M113.108 233.813L117.35 238.056M121.593 242.299L125.836 246.541M130.078 250.784L134.321 255.027M138.563 259.269L142.806 263.512M147.049 267.754L151.291 271.997M155.534 276.24L159.777 280.482M164.019 284.725L168.262 288.968M172.505 293.21L176.747 297.453M180.99 301.696L185.233 305.938M189.475 310.181L193.718 314.423M197.96 318.666L202.203 322.909M206.446 327.151L210.688 331.394M214.931 335.637L219.174 339.879M223.416 344.122L227.659 348.365M231.902 352.607L236.144 356.85M39.5685 137.647L43.8112 141.889M48.0538 146.132L52.2965 150.375M56.5391 154.617L60.7817 158.86M65.0244 163.103L69.267 167.345M73.5097 171.588L77.7523 175.831M81.9949 180.073L86.2376 184.316M90.4802 188.558L94.7229 192.801M98.9655 197.044L103.208 201.286M107.451 205.529L111.693 209.772M115.936 214.014L120.179 218.257M124.421 222.5L128.664 226.742M132.907 230.985L137.149 235.228M141.392 239.47L145.635 243.713M149.877 247.955L154.12 252.198M158.362 256.441L162.605 260.683M166.848 264.926L171.09 269.169M175.333 273.411L179.576 277.654M183.818 281.897L188.061 286.139M192.304 290.382L196.546 294.624M200.789 298.867L205.032 303.11M209.274 307.352L213.517 311.595M217.759 315.838L222.002 320.08M226.245 324.323L230.487 328.566M234.73 332.808L238.973 337.051M243.215 341.294L247.458 345.536M50.8822 126.333L55.1249 130.576M59.3675 134.818L63.6102 139.061M67.8528 143.304L72.0955 147.546M76.3381 151.789L80.5807 156.032M84.8234 160.274L89.066 164.517M93.3087 168.759L97.5513 173.002M101.794 177.245L106.037 181.487M110.279 185.73L114.522 189.973M118.764 194.215L123.007 198.458M127.25 202.701L131.492 206.943M135.735 211.186L139.978 215.429M144.22 219.671L148.463 223.914M152.706 228.156L156.948 232.399M161.191 236.642L165.434 240.884M169.676 245.127L173.919 249.37M178.161 253.612L182.404 257.855M186.647 262.098L190.889 266.34M195.132 270.583L199.375 274.826M203.617 279.068L207.86 283.311M212.103 287.553L216.345 291.796M220.588 296.039L224.831 300.281M229.073 304.524L233.316 308.767M237.558 313.009L241.801 317.252M246.044 321.495L250.286 325.737M254.529 329.98L258.772 334.222M62.196 115.019L66.4386 119.262M70.6812 123.505L74.9239 127.747M79.1665 131.99L83.4092 136.233M87.6518 140.475L91.8944 144.718M96.1371 148.96L100.38 153.203M104.622 157.446L108.865 161.688M113.108 165.931L117.35 170.174M121.593 174.416L125.836 178.659M130.078 182.902L134.321 187.144M138.563 191.387L142.806 195.63M147.049 199.872L151.291 204.115M155.534 208.357L159.777 212.6M164.019 216.843L168.262 221.085M172.505 225.328L176.747 229.571M180.99 233.813L185.233 238.056M189.475 242.299L193.718 246.541M197.96 250.784L202.203 255.027M206.446 259.269L210.688 263.512M214.931 267.754L219.174 271.997M223.416 276.24L227.659 280.482M231.902 284.725L236.144 288.968M240.387 293.21L244.63 297.453M248.872 301.696L253.115 305.938M257.357 310.181L261.6 314.423M265.843 318.666L270.085 322.909M-17 194.215L-12.7574 198.458M-8.51472 202.701L-4.27208 206.943M-0.0294375 211.186L4.2132 215.429M8.45584 219.671L12.6985 223.914M16.9411 228.156L21.1838 232.399M25.4264 236.642L29.669 240.884M33.9117 245.127L38.1543 249.37M42.397 253.612L46.6396 257.855M50.8822 262.098L55.1249 266.34M59.3675 270.583L63.6102 274.826M67.8528 279.068L72.0955 283.311M76.3381 287.553L80.5807 291.796M84.8234 296.039L89.066 300.281M93.3087 304.524L97.5513 308.767M101.794 313.009L106.037 317.252M110.279 321.495L114.522 325.737M118.764 329.98L123.007 334.222M127.25 338.465L131.492 342.708M135.735 346.95L139.978 351.193M144.22 355.436L148.463 359.678M152.706 363.921L156.948 368.164M161.191 372.406L165.434 376.649M169.676 380.892L173.919 385.134M178.161 389.377L182.404 393.619M186.647 397.862L190.889 402.105M-5.68629 182.902L-1.44365 187.144M2.79899 191.387L7.04163 195.63M11.2843 199.872L15.5269 204.115M19.7696 208.357L24.0122 212.6M28.2548 216.843L32.4975 221.085M36.7401 225.328L40.9828 229.571M45.2254 233.813L49.468 238.056M53.7107 242.299L57.9533 246.541M62.196 250.784L66.4386 255.027M70.6812 259.269L74.9239 263.512M79.1665 267.754L83.4092 271.997M87.6518 276.24L91.8944 280.482M96.1371 284.725L100.38 288.968M104.622 293.21L108.865 297.453M113.108 301.696L117.35 305.938M121.593 310.181L125.836 314.423M130.078 318.666L134.321 322.909M138.563 327.151L142.806 331.394M147.049 335.637L151.291 339.879M155.534 344.122L159.777 348.365M164.019 352.607L168.262 356.85M172.505 361.093L176.747 365.335M180.99 369.578L185.233 373.82M189.475 378.063L193.718 382.306M197.96 386.548L202.203 390.791M5.62742 171.588L9.87006 175.831M14.1127 180.073L18.3553 184.316M22.598 188.558L26.8406 192.801M31.0833 197.044L35.3259 201.286M39.5685 205.529L43.8112 209.772M48.0538 214.014L52.2965 218.257M56.5391 222.5L60.7817 226.742M65.0244 230.985L69.267 235.228M73.5097 239.47L77.7523 243.713M81.9949 247.955L86.2376 252.198M90.4802 256.441L94.7229 260.683M98.9655 264.926L103.208 269.169M107.451 273.411L111.693 277.654M115.936 281.897L120.179 286.139M124.421 290.382L128.664 294.624M132.907 298.867L137.149 303.11M141.392 307.352L145.635 311.595M149.877 315.838L154.12 320.08M158.362 324.323L162.605 328.566M166.848 332.808L171.09 337.051M175.333 341.294L179.576 345.536M183.818 349.779L188.061 354.021M192.304 358.264L196.546 362.507M200.789 366.749L205.032 370.992M209.274 375.235L213.517 379.477M16.9411 160.274L21.1838 164.517M25.4264 168.759L29.669 173.002M33.9117 177.245L38.1543 181.487M42.397 185.73L46.6396 189.973M50.8822 194.215L55.1249 198.458M59.3675 202.701L63.6102 206.943M67.8528 211.186L72.0955 215.429M76.3381 219.671L80.5807 223.914M84.8234 228.156L89.066 232.399M93.3087 236.642L97.5513 240.884M101.794 245.127L106.037 249.37M110.279 253.612L114.522 257.855M118.764 262.098L123.007 266.34M127.25 270.583L131.492 274.826M135.735 279.068L139.978 283.311M144.22 287.553L148.463 291.796M152.706 296.039L156.948 300.281M161.191 304.524L165.434 308.767M169.676 313.009L173.919 317.252M178.161 321.495L182.404 325.737M186.647 329.98L190.889 334.222M195.132 338.465L199.375 342.708M203.617 346.95L207.86 351.193M212.103 355.436L216.345 359.678M220.588 363.921L224.831 368.164M209.274 -32.0588L213.517 -27.8162M217.759 -23.5736L222.002 -19.3309M226.245 -15.0883L230.487 -10.8456M234.73 -6.60299L238.973 -2.36035M243.215 1.88229L247.458 6.12493M251.701 10.3676L255.943 14.6102M260.186 18.8529L264.428 23.0955M268.671 27.3381L272.914 31.5808M277.156 35.8234L281.399 40.0661M285.642 44.3087L289.884 48.5513M294.127 52.794L298.37 57.0366M302.612 61.2793L306.855 65.5219M311.098 69.7645L315.34 74.0072M319.583 78.2498L323.825 82.4925M328.068 86.7351L332.311 90.9777M336.553 95.2204L340.796 99.463M345.039 103.706L349.281 107.948M353.524 112.191L357.767 116.434M362.009 120.676L366.252 124.919M370.495 129.162L374.737 133.404M378.98 137.647L383.222 141.889M387.465 146.132L391.708 150.375M395.95 154.617L400.193 158.86M404.436 163.103L408.678 167.345M412.921 171.588L417.164 175.831M220.588 -43.3725L224.831 -39.1299M229.073 -34.8873L233.316 -30.6446M237.558 -26.402L241.801 -22.1593M246.044 -17.9167L250.286 -13.6741M254.529 -9.43142L258.772 -5.18878M263.014 -0.946136L267.257 3.2965M271.5 7.53914L275.742 11.7818M279.985 16.0244L284.227 20.2671M288.47 24.5097L292.713 28.7523M296.955 32.995L301.198 37.2376M305.441 41.4803L309.683 45.7229M313.926 49.9656L318.169 54.2082M322.411 58.4508L326.654 62.6935M330.897 66.9361L335.139 71.1788M339.382 75.4214L343.624 79.664M347.867 83.9067L352.11 88.1493M356.352 92.392L360.595 96.6346M364.838 100.877L369.08 105.12M373.323 109.363L377.566 113.605M381.808 117.848L386.051 122.09M390.293 126.333L394.536 130.576M398.779 134.818L403.021 139.061M407.264 143.304L411.507 147.546M415.749 151.789L419.992 156.032M424.235 160.274L428.477 164.517M231.902 -54.6863L236.144 -50.4436M240.387 -46.201L244.63 -41.9583M248.872 -37.7157L253.115 -33.473M257.357 -29.2304L261.6 -24.9878M265.843 -20.7451L270.085 -16.5025M274.328 -12.2598L278.571 -8.0172M282.813 -3.77456L287.056 0.468077M291.299 4.71072L295.541 8.95336M299.784 13.196L304.026 17.4386M308.269 21.6813L312.512 25.9239M316.754 30.1666L320.997 34.4092M325.24 38.6518L329.482 42.8945M333.725 47.1371L337.968 51.3798M342.21 55.6224L346.453 59.865M350.696 64.1077L354.938 68.3503M359.181 72.593L363.423 76.8356M367.666 81.0782L371.909 85.3209M376.151 89.5635L380.394 93.8062M384.637 98.0488L388.879 102.291M393.122 106.534L397.365 110.777M401.607 115.019L405.85 119.262M410.092 123.505L414.335 127.747M418.578 131.99L422.82 136.233M427.063 140.475L431.306 144.718M435.548 148.96L439.791 153.203M243.215 -66L247.458 -61.7573M251.701 -57.5147L255.943 -53.272M260.186 -49.0294L264.428 -44.7868M268.671 -40.5441L272.914 -36.3015M277.156 -32.0588L281.399 -27.8162M285.642 -23.5736L289.884 -19.3309M294.127 -15.0883L298.37 -10.8456M302.612 -6.60299L306.855 -2.36035M311.098 1.88229L315.34 6.12493M319.583 10.3676L323.825 14.6102M328.068 18.8529L332.311 23.0955M336.553 27.3381L340.796 31.5808M345.039 35.8234L349.281 40.0661M353.524 44.3087L357.767 48.5513M362.009 52.794L366.252 57.0366M370.495 61.2793L374.737 65.5219M378.98 69.7645L383.222 74.0072M387.465 78.2498L391.708 82.4925M395.95 86.7351L400.193 90.9777M404.436 95.2204L408.678 99.463M412.921 103.706L417.164 107.948M421.406 112.191L425.649 116.434M429.891 120.676L434.134 124.919M438.377 129.162L442.619 133.404M446.862 137.647L451.105 141.889M164.019 13.196L168.262 17.4386M172.505 21.6813L176.747 25.9239M180.99 30.1666L185.233 34.4092M189.475 38.6518L193.718 42.8945M197.96 47.1371L202.203 51.3798M206.446 55.6224L210.688 59.865M214.931 64.1077L219.174 68.3503M223.416 72.593L227.659 76.8356M231.902 81.0782L236.144 85.3209M240.387 89.5635L244.63 93.8062M248.872 98.0488L253.115 102.291M257.357 106.534L261.6 110.777M265.843 115.019L270.085 119.262M274.328 123.505L278.571 127.747M282.813 131.99L287.056 136.233M291.299 140.475L295.541 144.718M299.784 148.96L304.026 153.203M308.269 157.446L312.512 161.688M316.754 165.931L320.997 170.174M325.24 174.416L329.482 178.659M333.725 182.902L337.968 187.144M342.21 191.387L346.453 195.63M350.696 199.872L354.938 204.115M359.181 208.357L363.423 212.6M367.666 216.843L371.909 221.085M175.333 1.88229L179.576 6.12493M183.818 10.3676L188.061 14.6102M192.304 18.8529L196.546 23.0955M200.789 27.3381L205.032 31.5808M209.274 35.8234L213.517 40.0661M217.759 44.3087L222.002 48.5513M226.245 52.794L230.487 57.0366M234.73 61.2793L238.973 65.5219M243.215 69.7645L247.458 74.0072M251.701 78.2498L255.943 82.4925M260.186 86.7351L264.428 90.9777M268.671 95.2204L272.914 99.463M277.156 103.706L281.399 107.948M285.642 112.191L289.884 116.434M294.127 120.676L298.37 124.919M302.612 129.162L306.855 133.404M311.098 137.647L315.34 141.889M319.583 146.132L323.825 150.375M328.068 154.617L332.311 158.86M336.553 163.103L340.796 167.345M345.039 171.588L349.281 175.831M353.524 180.073L357.767 184.316M362.009 188.558L366.252 192.801M370.495 197.044L374.737 201.286M378.98 205.529L383.222 209.772M186.647 -9.43142L190.889 -5.18878M195.132 -0.946136L199.375 3.2965M203.617 7.53914L207.86 11.7818M212.103 16.0244L216.345 20.2671M220.588 24.5097L224.831 28.7523M229.073 32.995L233.316 37.2376M237.558 41.4803L241.801 45.7229M246.044 49.9656L250.286 54.2082M254.529 58.4508L258.772 62.6935M263.014 66.9361L267.257 71.1788M271.5 75.4214L275.742 79.664M279.985 83.9067L284.227 88.1493M288.47 92.392L292.713 96.6346M296.955 100.877L301.198 105.12M305.441 109.363L309.683 113.605M313.926 117.848L318.169 122.09M322.411 126.333L326.654 130.576M330.897 134.818L335.139 139.061M339.382 143.304L343.624 147.546M347.867 151.789L352.11 156.032M356.352 160.274L360.595 164.517M364.838 168.759L369.08 173.002M373.323 177.245L377.566 181.487M381.808 185.73L386.051 189.973M390.293 194.215L394.536 198.458M197.96 -20.7451L202.203 -16.5025M206.446 -12.2598L210.688 -8.0172M214.931 -3.77456L219.174 0.468077M223.416 4.71072L227.659 8.95336M231.902 13.196L236.144 17.4386M240.387 21.6813L244.63 25.9239M248.872 30.1666L253.115 34.4092M257.357 38.6518L261.6 42.8945M265.843 47.1371L270.085 51.3798M274.328 55.6224L278.571 59.865M282.813 64.1077L287.056 68.3503M291.299 72.593L295.541 76.8356M299.784 81.0782L304.026 85.3209M308.269 89.5635L312.512 93.8062M316.754 98.0488L320.997 102.291M325.24 106.534L329.482 110.777M333.725 115.019L337.968 119.262M342.21 123.505L346.453 127.747M350.696 131.99L354.938 136.233M359.181 140.475L363.423 144.718M367.666 148.96L371.909 153.203M376.151 157.446L380.394 161.688M384.637 165.931L388.879 170.174M393.122 174.416L397.365 178.659M401.607 182.902L405.85 187.144" stroke="#3D9EEB"/>
<path d="M-55.6192 196.76L-50.1814 194.224M-44.7435 191.688L-39.3057 189.153M-33.8678 186.617L-28.43 184.081M-22.9921 181.546L-17.5543 179.01M-12.1164 176.474L-6.67859 173.939M-1.24074 171.403L4.19711 168.867M9.63495 166.331L15.0728 163.796M20.5106 161.26L25.9485 158.724M31.3863 156.189L36.8242 153.653M42.262 151.117L47.6999 148.581M53.1377 146.046L58.5756 143.51M64.0134 140.974L69.4513 138.439M74.8891 135.903L80.327 133.367M85.7648 130.831L91.2027 128.296M96.6405 125.76L102.078 123.224M107.516 120.689L112.954 118.153M118.392 115.617L123.83 113.081M129.268 110.546L134.705 108.01M140.143 105.474L145.581 102.939M151.019 100.403L156.457 97.8672M161.895 95.3315L167.333 92.7958M172.77 90.2601L178.208 87.7244M183.646 85.1887L189.084 82.653M194.522 80.1173L199.96 77.5815M205.397 75.0458L210.835 72.5101M-62.3811 182.259L-56.9433 179.723M-51.5054 177.188L-46.0676 174.652M-40.6297 172.116L-35.1919 169.58M-29.754 167.045L-24.3162 164.509M-18.8783 161.973L-13.4405 159.438M-8.00263 156.902L-2.56479 154.366M2.87306 151.83L8.31091 149.295M13.7488 146.759L19.1866 144.223M24.6244 141.688L30.0623 139.152M35.5001 136.616L40.938 134.08M46.3758 131.545L51.8137 129.009M57.2515 126.473L62.6894 123.938M68.1272 121.402L73.5651 118.866M79.0029 116.331L84.4408 113.795M89.8786 111.259L95.3165 108.723M100.754 106.188L106.192 103.652M111.63 101.116L117.068 98.5806M122.506 96.0448L127.944 93.5091M133.381 90.9734L138.819 88.4377M144.257 85.902L149.695 83.3663M155.133 80.8306L160.571 78.2949M166.008 75.7592L171.446 73.2235M176.884 70.6877L182.322 68.152M187.76 65.6163L193.198 63.0806M198.636 60.5449L204.073 58.0092M-69.143 167.758L-63.7051 165.222M-58.2673 162.687L-52.8295 160.151M-47.3916 157.615L-41.9538 155.079M-36.5159 152.544L-31.0781 150.008M-25.6402 147.472L-20.2024 144.937M-14.7645 142.401L-9.32668 139.865M-3.88883 137.33L1.54902 134.794M6.98686 132.258L12.4247 129.722M17.8626 127.187L23.3004 124.651M28.7383 122.115L34.1761 119.58M39.6139 117.044L45.0518 114.508M50.4896 111.972L55.9275 109.437M61.3653 106.901L66.8032 104.365M72.241 101.83L77.6789 99.2939M83.1167 96.7582L88.5546 94.2225M93.9924 91.6868L99.4303 89.151M104.868 86.6153L110.306 84.0796M115.744 81.5439L121.182 79.0082M126.619 76.4725L132.057 73.9368M137.495 71.4011L142.933 68.8654M148.371 66.3297L153.809 63.794M159.247 61.2582L164.684 58.7225M170.122 56.1868L175.56 53.6511M180.998 51.1154L186.436 48.5797M191.874 46.044L197.312 43.5083M-75.9049 153.257L-70.467 150.721M-65.0292 148.186L-59.5913 145.65M-54.1535 143.114L-48.7157 140.579M-43.2778 138.043L-37.84 135.507M-32.4021 132.971L-26.9643 130.436M-21.5264 127.9L-16.0886 125.364M-10.6507 122.829L-5.21288 120.293M0.22497 117.757L5.66282 115.221M11.1007 112.686L16.5385 110.15M21.9764 107.614L27.4142 105.079M32.8521 102.543L38.2899 100.007M43.7277 97.4715L49.1656 94.9358M54.6034 92.4001L60.0413 89.8644M65.4791 87.3287L70.917 84.793M76.3548 82.2573L81.7927 79.7215M87.2305 77.1858L92.6684 74.6501M98.1062 72.1144L103.544 69.5787M108.982 67.043L114.42 64.5073M119.858 61.9716L125.295 59.4359M130.733 56.9002L136.171 54.3644M141.609 51.8287L147.047 49.293M152.485 46.7573L157.923 44.2216M163.36 41.6859L168.798 39.1502M174.236 36.6145L179.674 34.0788M185.112 31.5431L190.55 29.0073M-28.5716 254.764L-23.1338 252.228M-17.6959 249.692L-12.2581 247.156M-6.82025 244.621L-1.38241 242.085M4.05544 239.549L9.49329 237.014M14.9311 234.478L20.369 231.942M25.8068 229.406L31.2447 226.871M36.6825 224.335L42.1204 221.799M47.5582 219.264L52.9961 216.728M58.4339 214.192L63.8718 211.657M69.3096 209.121L74.7475 206.585M80.1853 204.049L85.6231 201.514M91.061 198.978L96.4988 196.442M101.937 193.907L107.375 191.371M112.812 188.835L118.25 186.299M123.688 183.764L129.126 181.228M134.564 178.692L140.002 176.157M145.439 173.621L150.877 171.085M156.315 168.549L161.753 166.014M167.191 163.478L172.629 160.942M178.067 158.407L183.504 155.871M188.942 153.335L194.38 150.8M199.818 148.264L205.256 145.728M210.694 143.192L216.131 140.657M221.569 138.121L227.007 135.585M232.445 133.05L237.883 130.514M-35.3335 240.263L-29.8957 237.727M-24.4578 235.191L-19.02 232.656M-13.5821 230.12L-8.1443 227.584M-2.70645 225.048L2.7314 222.513M8.16924 219.977L13.6071 217.441M19.0449 214.906L24.4828 212.37M29.9206 209.834L35.3585 207.298M40.7963 204.763L46.2342 202.227M51.672 199.691L57.1099 197.156M62.5477 194.62L67.9856 192.084M73.4234 189.548L78.8613 187.013M84.2991 184.477L89.7369 181.941M95.1748 179.406L100.613 176.87M106.05 174.334L111.488 171.799M116.926 169.263L122.364 166.727M127.802 164.191L133.24 161.656M138.678 159.12L144.115 156.584M149.553 154.049L154.991 151.513M160.429 148.977L165.867 146.441M171.305 143.906L176.742 141.37M182.18 138.834L187.618 136.299M193.056 133.763L198.494 131.227M203.932 128.691L209.37 126.156M214.807 123.62L220.245 121.084M225.683 118.549L231.121 116.013M-42.0954 225.762L-36.6576 223.226M-31.2197 220.69L-25.7819 218.155M-20.344 215.619L-14.9062 213.083M-9.46834 210.547L-4.0305 208.012M1.40735 205.476L6.8452 202.94M12.283 200.405L17.7209 197.869M23.1587 195.333L28.5966 192.798M34.0344 190.262L39.4723 187.726M44.9101 185.19L50.348 182.655M55.7858 180.119L61.2237 177.583M66.6615 175.048L72.0994 172.512M77.5372 169.976L82.9751 167.44M88.4129 164.905L93.8507 162.369M99.2886 159.833L104.726 157.298M110.164 154.762L115.602 152.226M121.04 149.69L126.478 147.155M131.916 144.619L137.354 142.083M142.791 139.548L148.229 137.012M153.667 134.476L159.105 131.94M164.543 129.405L169.981 126.869M175.418 124.333L180.856 121.798M186.294 119.262L191.732 116.726M197.17 114.191L202.608 111.655M208.046 109.119L213.483 106.583M218.921 104.048L224.359 101.512M-48.8573 211.261L-43.4195 208.725M-37.9816 206.189L-32.5438 203.654M-27.1059 201.118L-21.6681 198.582M-16.2302 196.047L-10.7924 193.511M-5.35454 190.975L0.0833051 188.439M5.52115 185.904L10.959 183.368M16.3968 180.832L21.8347 178.297M27.2725 175.761L32.7104 173.225M38.1482 170.689L43.5861 168.154M49.0239 165.618L54.4618 163.082M59.8996 160.547L65.3375 158.011M70.7753 155.475L76.2132 152.939M81.651 150.404L87.0889 147.868M92.5267 145.332L97.9645 142.797M103.402 140.261L108.84 137.725M114.278 135.19L119.716 132.654M125.154 130.118L130.592 127.582M136.029 125.047L141.467 122.511M146.905 119.975L152.343 117.44M157.781 114.904L163.219 112.368M168.657 109.832L174.094 107.297M179.532 104.761L184.97 102.225M190.408 99.6896L195.846 97.1539M201.284 94.6182L206.721 92.0825M212.159 89.5468L217.597 87.011M-1.52407 312.767L3.91378 310.232M9.35162 307.696L14.7895 305.16M20.2273 302.624L25.6652 300.089M31.103 297.553L36.5409 295.017M41.9787 292.482L47.4166 289.946M52.8544 287.41L58.2922 284.874M63.7301 282.339L69.1679 279.803M74.6058 277.267L80.0436 274.732M85.4815 272.196L90.9193 269.66M96.3572 267.125L101.795 264.589M107.233 262.053L112.671 259.517M118.109 256.982L123.546 254.446M128.984 251.91L134.422 249.375M139.86 246.839L145.298 244.303M150.736 241.767L156.173 239.232M161.611 236.696L167.049 234.16M172.487 231.625L177.925 229.089M183.363 226.553L188.801 224.017M194.238 221.482L199.676 218.946M205.114 216.41L210.552 213.875M215.99 211.339L221.428 208.803M226.865 206.267L232.303 203.732M237.741 201.196L243.179 198.66M248.617 196.125L254.055 193.589M259.493 191.053L264.93 188.518M-8.28596 298.266L-2.84812 295.731M2.58973 293.195L8.02758 290.659M13.4654 288.124L18.9033 285.588M24.3411 283.052L29.779 280.516M35.2168 277.981L40.6547 275.445M46.0925 272.909L51.5304 270.374M56.9682 267.838L62.406 265.302M67.8439 262.766L73.2817 260.231M78.7196 257.695L84.1574 255.159M89.5953 252.624L95.0331 250.088M100.471 247.552L105.909 245.016M111.347 242.481L116.785 239.945M122.222 237.409L127.66 234.874M133.098 232.338L138.536 229.802M143.974 227.267L149.412 224.731M154.849 222.195L160.287 219.659M165.725 217.124L171.163 214.588M176.601 212.052L182.039 209.517M187.477 206.981L192.914 204.445M198.352 201.909L203.79 199.374M209.228 196.838L214.666 194.302M220.104 191.767L225.541 189.231M230.979 186.695L236.417 184.159M241.855 181.624L247.293 179.088M252.731 176.552L258.169 174.017M-15.0479 283.765L-9.61001 281.23M-4.17216 278.694L1.26569 276.158M6.70353 273.623L12.1414 271.087M17.5792 268.551L23.0171 266.015M28.4549 263.48L33.8928 260.944M39.3306 258.408L44.7685 255.873M50.2063 253.337L55.6442 250.801M61.082 248.266L66.5198 245.73M71.9577 243.194L77.3955 240.658M82.8334 238.123L88.2712 235.587M93.7091 233.051L99.1469 230.516M104.585 227.98L110.023 225.444M115.46 222.908L120.898 220.373M126.336 217.837L131.774 215.301M137.212 212.766L142.65 210.23M148.088 207.694L153.525 205.158M158.963 202.623L164.401 200.087M169.839 197.551L175.277 195.016M180.715 192.48L186.152 189.944M191.59 187.408L197.028 184.873M202.466 182.337L207.904 179.801M213.342 177.266L218.78 174.73M224.217 172.194L229.655 169.659M235.093 167.123L240.531 164.587M245.969 162.051L251.407 159.516M-21.8097 269.265L-16.3719 266.729M-10.9341 264.193L-5.49621 261.657M-0.0583601 259.122L5.37949 256.586M10.8173 254.05L16.2552 251.515M21.693 248.979L27.1309 246.443M32.5687 243.907L38.0066 241.372M43.4444 238.836L48.8823 236.3M54.3201 233.765L59.758 231.229M65.1958 228.693L70.6336 226.157M76.0715 223.622L81.5093 221.086M86.9472 218.55L92.385 216.015M97.8229 213.479L103.261 210.943M108.699 208.407L114.136 205.872M119.574 203.336L125.012 200.8M130.45 198.265L135.888 195.729M141.326 193.193L146.764 190.658M152.201 188.122L157.639 185.586M163.077 183.05L168.515 180.515M173.953 177.979L179.391 175.443M184.828 172.908L190.266 170.372M195.704 167.836L201.142 165.3M206.58 162.765L212.018 160.229M217.456 157.693L222.893 155.158M228.331 152.622L233.769 150.086M239.207 147.55L244.645 145.015M25.5235 370.771L30.9613 368.235M36.3992 365.7L41.837 363.164M47.2749 360.628L52.7127 358.092M58.1506 355.557L63.5884 353.021M69.0263 350.485L74.4641 347.95M79.902 345.414L85.3398 342.878M90.7777 340.342L96.2155 337.807M101.653 335.271L107.091 332.735M112.529 330.2L117.967 327.664M123.405 325.128L128.843 322.593M134.28 320.057L139.718 317.521M145.156 314.985L150.594 312.45M156.032 309.914L161.47 307.378M166.908 304.843L172.345 302.307M177.783 299.771L183.221 297.235M188.659 294.7L194.097 292.164M199.535 289.628L204.972 287.093M210.41 284.557L215.848 282.021M221.286 279.485L226.724 276.95M232.162 274.414L237.6 271.878M243.037 269.343L248.475 266.807M253.913 264.271L259.351 261.735M264.789 259.2L270.227 256.664M275.664 254.128L281.102 251.593M286.54 249.057L291.978 246.521M18.7616 356.27L24.1995 353.734M29.6373 351.199L35.0751 348.663M40.513 346.127L45.9508 343.592M51.3887 341.056L56.8265 338.52M62.2644 335.984L67.7022 333.449M73.1401 330.913L78.5779 328.377M84.0158 325.842L89.4536 323.306M94.8915 320.77L100.329 318.234M105.767 315.699L111.205 313.163M116.643 310.627L122.081 308.092M127.519 305.556L132.956 303.02M138.394 300.484L143.832 297.949M149.27 295.413L154.708 292.877M160.146 290.342L165.583 287.806M171.021 285.27L176.459 282.734M181.897 280.199L187.335 277.663M192.773 275.127L198.211 272.592M203.648 270.056L209.086 267.52M214.524 264.985L219.962 262.449M225.4 259.913L230.838 257.377M236.275 254.842L241.713 252.306M247.151 249.77L252.589 247.235M258.027 244.699L263.465 242.163M268.903 239.627L274.34 237.092M279.778 234.556L285.216 232.02M11.9997 341.769L17.4376 339.233M22.8754 336.698L28.3133 334.162M33.7511 331.626L39.1889 329.091M44.6268 326.555L50.0646 324.019M55.5025 321.483L60.9403 318.948M66.3782 316.412L71.816 313.876M77.2539 311.341L82.6917 308.805M88.1296 306.269L93.5674 303.734M99.0053 301.198L104.443 298.662M109.881 296.126L115.319 293.591M120.757 291.055L126.194 288.519M131.632 285.984L137.07 283.448M142.508 280.912L147.946 278.376M153.384 275.841L158.822 273.305M164.259 270.769L169.697 268.234M175.135 265.698L180.573 263.162M186.011 260.626L191.449 258.091M196.887 255.555L202.324 253.019M207.762 250.484L213.2 247.948M218.638 245.412L224.076 242.876M229.514 240.341L234.951 237.805M240.389 235.269L245.827 232.734M251.265 230.198L256.703 227.662M262.141 225.127L267.579 222.591M273.016 220.055L278.454 217.519M5.23782 327.268L10.6757 324.733M16.1135 322.197L21.5514 319.661M26.9892 317.125L32.4271 314.59M37.8649 312.054L43.3027 309.518M48.7406 306.983L54.1784 304.447M59.6163 301.911L65.0541 299.375M70.492 296.84L75.9298 294.304M81.3677 291.768L86.8055 289.233M92.2434 286.697L97.6812 284.161M103.119 281.625L108.557 279.09M113.995 276.554L119.433 274.018M124.87 271.483L130.308 268.947M135.746 266.411L141.184 263.875M146.622 261.34L152.06 258.804M157.498 256.268L162.935 253.733M168.373 251.197L173.811 248.661M179.249 246.126L184.687 243.59M190.125 241.054L195.562 238.518M201 235.983L206.438 233.447M211.876 230.911L217.314 228.376M222.752 225.84L228.19 223.304M233.627 220.768L239.065 218.233M244.503 215.697L249.941 213.161M255.379 210.626L260.817 208.09M266.254 205.554L271.692 203.018M-109.714 80.7525L-104.277 78.2168M-98.8387 75.6811L-93.4008 73.1454M-87.963 70.6097L-82.5251 68.0739M-77.0873 65.5382L-71.6494 63.0025M-66.2116 60.4668L-60.7737 57.9311M-55.3359 55.3954L-49.898 52.8597M-44.4602 50.324L-39.0223 47.7883M-33.5845 45.2526L-28.1466 42.7169M-22.7088 40.1811L-17.271 37.6454M-11.8331 35.1097L-6.39526 32.574M-0.95741 30.0383L4.48044 27.5026M9.91828 24.9669L15.3561 22.4312M20.794 19.8955L26.2318 17.3598M31.6697 14.824L37.1075 12.2883M42.5454 9.75263L47.9832 7.21692M53.4211 4.68121L58.8589 2.1455M64.2968 -0.390213L69.7346 -2.92592M75.1724 -5.46163L80.6103 -7.99734M86.0481 -10.5331L91.486 -13.0688M96.9238 -15.6045L102.362 -18.1402M107.8 -20.6759L113.237 -23.2116M118.675 -25.7473L124.113 -28.283M129.551 -30.8187L134.989 -33.3544M140.427 -35.8901L145.864 -38.4259M151.302 -40.9616L156.74 -43.4973M-116.476 66.2516L-111.038 63.7159M-105.601 61.1802L-100.163 58.6444M-94.7249 56.1087L-89.287 53.573M-83.8492 51.0373L-78.4113 48.5016M-72.9735 45.9659L-67.5356 43.4302M-62.0978 40.8945L-56.6599 38.3588M-51.2221 35.8231L-45.7842 33.2873M-40.3464 30.7516L-34.9085 28.2159M-29.4707 25.6802L-24.0328 23.1445M-18.595 20.6088L-13.1571 18.0731M-7.7193 15.5374L-2.28146 13.0017M3.15639 10.466L8.59424 7.93025M14.0321 5.39454L19.4699 2.85883M24.9078 0.32312L30.3456 -2.21259M35.7835 -4.7483L41.2213 -7.28401M46.6592 -9.81972L52.097 -12.3554M57.5349 -14.8911L62.9727 -17.4268M68.4106 -19.9626L73.8484 -22.4983M79.2862 -25.034L84.7241 -27.5697M90.1619 -30.1054L95.5998 -32.6411M101.038 -35.1768L106.475 -37.7125M111.913 -40.2482L117.351 -42.7839M122.789 -45.3197L128.227 -47.8554M133.665 -50.3911L139.103 -52.9268M144.54 -55.4625L149.978 -57.9982M-123.238 51.7506L-117.8 49.2149M-112.362 46.6792L-106.925 44.1435M-101.487 41.6078L-96.0489 39.0721M-90.6111 36.5364L-85.1732 34.0007M-79.7354 31.465L-74.2975 28.9293M-68.8597 26.3935L-63.4218 23.8578M-57.984 21.3221L-52.5461 18.7864M-47.1083 16.2507L-41.6704 13.715M-36.2326 11.1793L-30.7947 8.64358M-25.3569 6.10787L-19.919 3.57216M-14.4812 1.03645L-9.04335 -1.49926M-3.6055 -4.03497L1.83235 -6.57068M7.27019 -9.10639L12.708 -11.6421M18.1459 -14.1778L23.5837 -16.7135M29.0216 -19.2492L34.4594 -21.7849M39.8973 -24.3206L45.3351 -26.8564M50.773 -29.3921L56.2108 -31.9278M61.6487 -34.4635L67.0865 -36.9992M72.5244 -39.5349L77.9622 -42.0706M83.4 -44.6063L88.8379 -47.142M94.2757 -49.6777L99.7136 -52.2134M105.151 -54.7492L110.589 -57.2849M116.027 -59.8206L121.465 -62.3563M126.903 -64.892L132.341 -67.4277M137.779 -69.9634L143.216 -72.4991M-130 37.2497L-124.562 34.714M-119.124 32.1783L-113.686 29.6426M-108.249 27.1069L-102.811 24.5712M-97.3729 22.0355L-91.9351 19.4998M-86.4972 16.964L-81.0594 14.4283M-75.6216 11.8926L-70.1837 9.35691M-64.7459 6.8212L-59.308 4.28549M-53.8702 1.74978L-48.4323 -0.785925M-42.9945 -3.32163L-37.5566 -5.85734M-32.1188 -8.39305L-26.6809 -10.9288M-21.2431 -13.4645L-15.8052 -16.0002M-10.3674 -18.5359L-4.92955 -21.0716M0.508301 -23.6073L5.94615 -26.143M11.384 -28.6787L16.8218 -31.2144M22.2597 -33.7501L27.6975 -36.2859M33.1354 -38.8216L38.5732 -41.3573M44.0111 -43.893L49.4489 -46.4287M54.8868 -48.9644L60.3246 -51.5001M65.7625 -54.0358L71.2003 -56.5715M76.6382 -59.1072L82.076 -61.643M87.5139 -64.1787L92.9517 -66.7144M98.3895 -69.2501L103.827 -71.7858M109.265 -74.3215L114.703 -76.8572M120.141 -79.3929L125.579 -81.9286M131.017 -84.4643L136.454 -87.0001M-82.6668 138.756L-77.2289 136.22M-71.7911 133.685L-66.3532 131.149M-60.9154 128.613L-55.4775 126.078M-50.0397 123.542L-44.6019 121.006M-39.164 118.471L-33.7262 115.935M-28.2883 113.399L-22.8505 110.863M-17.4126 108.328L-11.9748 105.792M-6.53692 103.256L-1.09908 100.721M4.33877 98.1848L9.77662 95.6491M15.2145 93.1134L20.6523 90.5777M26.0902 88.042L31.528 85.5063M36.9659 82.9706L42.4037 80.4349M47.8415 77.8992L53.2794 75.3635M58.7172 72.8277L64.1551 70.292M69.5929 67.7563L75.0308 65.2206M80.4686 62.6849L85.9065 60.1492M91.3443 57.6135L96.7822 55.0778M102.22 52.5421L107.658 50.0064M113.096 47.4706L118.534 44.9349M123.971 42.3992L129.409 39.8635M134.847 37.3278L140.285 34.7921M145.723 32.2564L151.161 29.7207M156.598 27.185L162.036 24.6493M167.474 22.1136L172.912 19.5778M178.35 17.0421L183.788 14.5064M-89.4287 124.255L-83.9908 121.72M-78.553 119.184L-73.1151 116.648M-67.6773 114.112L-62.2394 111.577M-56.8016 109.041L-51.3637 106.505M-45.9259 103.97L-40.488 101.434M-35.0502 98.8982L-29.6124 96.3625M-24.1745 93.8268L-18.7367 91.291M-13.2988 88.7553L-7.86097 86.2196M-2.42312 83.6839L3.01473 81.1482M8.45257 78.6125L13.8904 76.0768M19.3283 73.5411L24.7661 71.0054M30.204 68.4697L35.6418 65.9339M41.0797 63.3982L46.5175 60.8625M51.9553 58.3268L57.3932 55.7911M62.831 53.2554L68.2689 50.7197M73.7067 48.184L79.1446 45.6483M84.5824 43.1126L90.0203 40.5769M95.4581 38.0411L100.896 35.5054M106.334 32.9697L111.772 30.434M117.21 27.8983L122.647 25.3626M128.085 22.8269L133.523 20.2912M138.961 17.7555L144.399 15.2198M149.837 12.684L155.274 10.1483M160.712 7.61263L166.15 5.07692M171.588 2.54121L177.026 0.00549865M-96.1906 109.754L-90.7527 107.219M-85.3149 104.683L-79.877 102.147M-74.4392 99.6115L-69.0013 97.0758M-63.5635 94.5401L-58.1256 92.0044M-52.6878 89.4687L-47.2499 86.933M-41.8121 84.3972L-36.3742 81.8615M-30.9364 79.3258L-25.4986 76.7901M-20.0607 74.2544L-14.6229 71.7187M-9.18501 69.183L-3.74717 66.6473M1.69068 64.1116L7.12853 61.5759M12.5664 59.0402L18.0042 56.5044M23.4421 53.9687L28.8799 51.433M34.3178 48.8973L39.7556 46.3616M45.1935 43.8259L50.6313 41.2902M56.0691 38.7545L61.507 36.2188M66.9448 33.6831L72.3827 31.1473M77.8205 28.6116L83.2584 26.0759M88.6962 23.5402L94.1341 21.0045M99.5719 18.4688L105.01 15.9331M110.448 13.3974L115.885 10.8617M121.323 8.32596L126.761 5.79025M132.199 3.25454L137.637 0.718831M143.075 -1.81688L148.513 -4.35259M153.95 -6.8883L159.388 -9.42401M164.826 -11.9597L170.264 -14.4954M-102.952 95.2534L-97.5146 92.7177M-92.0768 90.182L-86.6389 87.6463M-81.2011 85.1106L-75.7632 82.5749M-70.3254 80.0392L-64.8875 77.5035M-59.4497 74.9677L-54.0118 72.432M-48.574 69.8963L-43.1361 67.3606M-37.6983 64.8249L-32.2604 62.2892M-26.8226 59.7535L-21.3848 57.2178M-15.9469 54.6821L-10.5091 52.1464M-5.07121 49.6106L0.366636 47.0749M5.80448 44.5392L11.2423 42.0035M16.6802 39.4678L22.118 36.9321M27.5559 34.3964L32.9937 31.8607M38.4316 29.325L43.8694 26.7893M49.3073 24.2536L54.7451 21.7178M60.183 19.1821L65.6208 16.6464M71.0586 14.1107L76.4965 11.575M81.9343 9.03929L87.3722 6.50358M92.81 3.96787L98.2479 1.43216M103.686 -1.10355L109.124 -3.63926M114.561 -6.17496L119.999 -8.71067M125.437 -11.2464L130.875 -13.7821M136.313 -16.3178L141.751 -18.8535M147.189 -21.3892L152.626 -23.9249M158.064 -26.4606L163.502 -28.9964" stroke="#EB3D47"/>
</g>
<defs>
<clipPath id="clip0_128_121">
<rect width="300" height="300" fill="white"/>
</clipPath>
</defs>
</svg>
